<svg width="707" height="693" viewBox="0 0 707 693" fill="none" xmlns="http://www.w3.org/2000/svg">
<mask id="path-1-outside-1_4_37" maskUnits="userSpaceOnUse" x="-0.436035" y="-0.856728" width="707" height="694" fill="black">
<rect fill="white" x="-0.436035" y="-0.856728" width="707" height="694"/>
<path d="M562.13 278.643L530.38 252.643L503.95 286.143L510.129 291.143L433.129 384.643L429.863 381.968L410.974 406.271L367.339 410.64L194.113 271.107L193.367 300.871L208.961 313.438L391.293 460.384L420.367 453.354L480.129 379.643L487.129 386.643L528.63 337.143L520.129 330.143L562.13 278.643Z"/>
<path d="M359.129 114.143L336.629 95.6433L294.629 147.143L284.629 139.143L244.13 189.143L253.63 197.643L223.871 234.375L359.129 114.143Z"/>
<path d="M163.609 337.603L134.597 344.571L15.564 491.498L163.609 337.603Z"/>
<path d="M193.367 300.871L163.609 337.603L186.285 325.521L391.293 460.384L208.961 313.438L193.367 300.871Z"/>
<path d="M569.13 199.143L685.38 38.6433L673.255 29.3933L568.085 193.727L569.13 199.143Z"/>
<path d="M15.564 491.498L17.767 512.587L219.977 676.687L241.081 674.486L360.605 527.065L361.412 497.239L241.081 648.643L212.891 651.613L15.564 491.498Z"/>
<path fill-rule="evenodd" clip-rule="evenodd" d="M210.875 566.783L194.091 587.542L208.133 598.956L222.176 602.143L230.558 599.97L238.94 589.571L210.875 566.783Z"/>
<path d="M208.133 598.956L222.176 610.369L230.558 599.97L222.176 602.143L208.133 598.956Z"/>
<path fill-rule="evenodd" clip-rule="evenodd" d="M233.255 539.108L216.471 559.867L230.499 571.251L244.526 573.143L252.908 572.236L261.29 561.837L233.255 539.108Z"/>
<path fill-rule="evenodd" clip-rule="evenodd" d="M252.864 543.546L238.851 532.192L255.635 511.433L283.641 534.103L275.259 544.502L266.877 546.643L252.864 543.546Z"/>
<path d="M230.499 571.251L244.526 582.635L252.908 572.236L244.526 573.143L230.499 571.251Z"/>
<path d="M252.864 543.546L266.877 554.901L275.259 544.502L266.877 546.643L252.864 543.546Z"/>
<path d="M661.13 20.1433L525.379 164.893H528.043L667.192 24.7683L661.13 20.1433Z"/>
<path d="M525.379 164.893L502.754 189.018L504.191 188.913L528.043 164.893H525.379Z"/>
<path d="M502.754 189.018L480.129 213.143L504.191 188.913L502.754 189.018Z"/>
<path d="M549.755 225.893L569.13 199.143L568.085 193.727L549.199 223.236L549.755 225.893Z"/>
<path d="M530.38 252.643L549.755 225.893L549.199 223.236L530.38 252.643Z"/>
<path d="M568.085 193.727L564.814 176.768L544.439 200.456L549.199 223.236L568.085 193.727Z"/>
<path fill-rule="evenodd" clip-rule="evenodd" d="M163.609 337.603L15.564 491.498L212.891 651.613L241.081 648.643L361.412 497.239L391.293 460.384L186.285 325.521L163.609 337.603ZM530.38 252.643L503.95 286.143L334.629 149.143L259.13 242.143L429.863 381.968L410.974 406.271L367.339 410.64L194.113 271.107L223.871 234.375L359.129 114.143L393.129 85.6433L435.629 120.143L413.629 158.643L480.129 213.143L504.191 188.913L526.564 187.268L544.439 200.456L549.199 223.236L530.38 252.643ZM564.814 176.768L673.255 29.3933L667.192 24.7683L528.043 164.893H548.564L564.814 176.768ZM261.231 504.517L278.015 483.758L305.992 506.368L297.609 516.767L289.227 527.167L275.229 515.842L261.231 504.517ZM240.714 453.615L268.691 476.225L260.294 486.594L251.897 496.964L237.899 485.639L223.901 474.314L240.714 453.615ZM194.091 587.542L210.875 566.783L238.94 589.571L230.558 599.97L222.176 610.369L208.133 598.956L194.091 587.542ZM173.457 536.403L156.644 557.103L170.686 568.516L184.728 579.93L193.125 569.56L201.522 559.191L173.457 536.403ZM136.038 506.023L164.103 528.811L155.692 539.151L147.28 549.491L133.238 538.077L119.196 526.664L136.038 506.023ZM109.833 519.051L118.259 508.741L126.685 498.431L98.6201 475.643L81.7483 496.224L95.7906 507.638L109.833 519.051ZM132.301 491.554L140.727 481.243L149.153 470.933L121.117 448.205L104.246 468.786L118.273 480.17L132.301 491.554ZM266.877 554.901L252.864 543.546L238.851 532.192L255.635 511.433L283.641 534.103L275.259 544.502L266.877 554.901ZM216.471 559.867L233.255 539.108L261.29 561.837L252.908 572.236L244.526 582.635L230.499 571.251L216.471 559.867ZM201.482 501.911L215.495 513.265L229.507 524.619L237.904 514.25L246.301 503.88L218.295 481.211L201.482 501.911ZM207.118 552.275L215.514 541.905L223.911 531.536L195.876 508.807L179.063 529.507L193.09 540.891L207.118 552.275ZM208.961 473.658L200.55 483.998L192.138 494.338L178.125 482.983L164.112 471.629L180.955 450.989L208.961 473.658ZM169.709 521.914L178.121 511.574L186.532 501.234L158.497 478.506L141.654 499.146L155.682 510.53L169.709 521.914ZM203.413 423.471L231.39 446.081L222.978 456.421L214.567 466.761L200.569 455.436L186.571 444.112L203.413 423.471ZM149.24 413.909L166.112 393.328L194.089 415.938L185.663 426.248L177.237 436.559L163.239 425.234L149.24 413.909ZM171.621 443.435L163.195 453.746L154.769 464.056L140.756 452.702L126.743 441.348L143.615 420.766L171.621 443.435Z"/>
<path d="M564.814 176.768L568.085 193.727L673.255 29.3933L564.814 176.768Z"/>
<path d="M526.564 187.268L544.439 200.456L564.814 176.768L548.564 164.893H528.043L504.191 188.913L526.564 187.268Z"/>
<path fill-rule="evenodd" clip-rule="evenodd" d="M173.457 536.403L156.644 557.103L170.686 568.516L182.564 572.236L193.125 569.56L201.522 559.191L173.457 536.403Z"/>
<path fill-rule="evenodd" clip-rule="evenodd" d="M223.911 531.536L215.514 541.905L193.09 540.891L179.063 529.507L195.876 508.807L223.911 531.536Z"/>
<path fill-rule="evenodd" clip-rule="evenodd" d="M201.482 501.911L215.495 513.265L237.904 514.25L246.301 503.88L218.295 481.211L201.482 501.911Z"/>
<path fill-rule="evenodd" clip-rule="evenodd" d="M240.714 453.615L268.691 476.225L260.294 486.594L251.897 491.554L237.899 485.639L223.901 474.314L240.714 453.615Z"/>
<path fill-rule="evenodd" clip-rule="evenodd" d="M203.413 423.471L231.39 446.081L222.978 456.421L214.567 460.643L200.569 455.436L186.571 444.112L203.413 423.471Z"/>
<path fill-rule="evenodd" clip-rule="evenodd" d="M208.961 473.658L200.55 483.998L191.064 487.643L178.125 482.983L164.112 471.629L180.955 450.989L208.961 473.658Z"/>
<path fill-rule="evenodd" clip-rule="evenodd" d="M164.103 528.811L136.038 506.023L119.196 526.664L133.238 538.077L145.564 541.905L155.692 539.151L164.103 528.811Z"/>
<path fill-rule="evenodd" clip-rule="evenodd" d="M118.259 508.741L126.685 498.431L98.6201 475.643L81.7483 496.224L95.7906 507.638L108.564 513.265L118.259 508.741Z"/>
<path fill-rule="evenodd" clip-rule="evenodd" d="M149.153 470.933L140.727 481.243L130.564 483.998L118.273 480.17L104.246 468.786L121.117 448.205L149.153 470.933Z"/>
<path fill-rule="evenodd" clip-rule="evenodd" d="M171.621 443.435L163.195 453.746L154.769 458.143L140.756 452.702L126.743 441.348L143.615 420.766L171.621 443.435Z"/>
<path fill-rule="evenodd" clip-rule="evenodd" d="M166.112 393.328L149.24 413.909L163.239 425.234L177.237 429.643L185.663 426.248L194.089 415.938L166.112 393.328Z"/>
<path d="M170.686 568.516L184.728 579.93L193.125 569.56L182.564 572.236L170.686 568.516Z"/>
<path d="M193.09 540.891L207.118 552.275L215.514 541.905L193.09 540.891Z"/>
<path d="M215.495 513.265L229.507 524.619L237.904 514.25L215.495 513.265Z"/>
<path d="M237.899 485.639L251.897 496.964L260.294 486.594L251.897 491.554L237.899 485.639Z"/>
<path d="M200.569 455.436L214.567 466.761L222.978 456.421L214.567 460.643L200.569 455.436Z"/>
<path d="M178.125 482.983L192.138 494.338L200.55 483.998L191.064 487.643L178.125 482.983Z"/>
<path d="M133.238 538.077L147.28 549.491L155.692 539.151L145.564 541.905L133.238 538.077Z"/>
<path d="M95.7906 507.638L109.833 519.051L118.259 508.741L108.564 513.265L95.7906 507.638Z"/>
<path d="M118.273 480.17L132.301 491.554L140.727 481.243L130.564 483.998L118.273 480.17Z"/>
<path d="M140.756 452.702L154.769 464.056L163.195 453.746L154.769 458.143L140.756 452.702Z"/>
<path d="M163.239 425.234L177.237 436.559L185.663 426.248L177.237 429.643L163.239 425.234Z"/>
<path fill-rule="evenodd" clip-rule="evenodd" d="M278.015 483.758L261.231 504.517L275.229 515.842L288.064 521.143L297.609 516.767L305.992 506.368L278.015 483.758Z"/>
<path d="M275.229 515.842L289.227 527.167L297.609 516.767L288.064 521.143L275.229 515.842Z"/>
<path fill-rule="evenodd" clip-rule="evenodd" d="M186.532 501.234L178.121 511.574L169.709 514.25L155.682 510.53L141.654 499.146L158.497 478.506L186.532 501.234Z"/>
<path d="M155.682 510.53L169.709 521.914L178.121 511.574L169.709 514.25L155.682 510.53Z"/>
<path d="M336.574 164.643L273.064 242.781L306.97 212.399L341.054 184.143L378.564 197.643L336.574 164.643Z"/>
<path fill-rule="evenodd" clip-rule="evenodd" d="M510.129 291.143L334.629 149.143L259.13 242.143L429.863 381.968L433.129 384.643L510.129 291.143ZM273.064 242.781L336.574 164.643L378.564 197.643L341.054 184.143L306.97 212.399L273.064 242.781ZM306.97 212.399L286.42 237.741L290.59 241.122L287.245 245.247L291.828 248.963L295.172 244.839L299.388 248.258L306.152 239.917L309.818 242.89L303.055 251.231L307.27 254.649L303.926 258.774L308.554 262.527L311.899 258.403L316.023 261.747L336.574 236.406L331.991 232.69L311.812 257.573L308.1 254.563L314.864 246.222L310.648 242.804L320.682 230.431L316.099 226.714L306.065 239.087L301.849 235.669L295.086 244.009L291.42 241.036L311.599 216.152L306.97 212.399ZM324.665 275.592L344.807 250.754L341.141 247.781L337.796 251.906L333.168 248.152L336.884 243.57L341.054 246.951L344.436 242.781L357.359 253.261L353.977 257.431L358.193 260.85L354.477 265.433L349.802 261.642L353.147 257.518L349.481 254.545L329.339 279.382L324.665 275.592Z"/>
<path d="M324.665 275.592L344.807 250.754L341.141 247.781L337.796 251.906L333.168 248.152L336.884 243.57L341.054 246.951L344.436 242.781L357.359 253.261L353.977 257.431L358.193 260.85L354.477 265.433L349.802 261.642L353.147 257.518L349.481 254.545L329.339 279.382L324.665 275.592Z"/>
<path d="M290.59 241.122L287.245 245.247L291.828 248.963L295.172 244.839L299.388 248.258L306.152 239.917L309.818 242.89L303.055 251.231L307.27 254.649L303.926 258.774L308.554 262.527L311.899 258.403L316.023 261.747L336.574 236.406L331.991 232.69L311.812 257.573L308.1 254.563L314.864 246.222L310.648 242.804L320.682 230.431L316.099 226.714L306.065 239.087L301.849 235.669L295.086 244.009L291.42 241.036L311.599 216.152L306.97 212.399L286.42 237.741L290.59 241.122Z"/>
</mask>
<path d="M562.13 278.643L530.38 252.643L503.95 286.143L510.129 291.143L433.129 384.643L429.863 381.968L410.974 406.271L367.339 410.64L194.113 271.107L193.367 300.871L208.961 313.438L391.293 460.384L420.367 453.354L480.129 379.643L487.129 386.643L528.63 337.143L520.129 330.143L562.13 278.643Z" fill="#0C3B68"/>
<path d="M359.129 114.143L336.629 95.6433L294.629 147.143L284.629 139.143L244.13 189.143L253.63 197.643L223.871 234.375L359.129 114.143Z" fill="#1E5384"/>
<path d="M163.609 337.603L134.597 344.571L15.564 491.498L163.609 337.603Z" fill="#1E5384"/>
<path d="M193.367 300.871L163.609 337.603L186.285 325.521L391.293 460.384L208.961 313.438L193.367 300.871Z" fill="#1E5384"/>
<path d="M569.13 199.143L685.38 38.6433L673.255 29.3933L568.085 193.727L569.13 199.143Z" fill="#0C3B68"/>
<path d="M15.564 491.498L17.767 512.587L219.977 676.687L241.081 674.486L360.605 527.065L361.412 497.239L241.081 648.643L212.891 651.613L15.564 491.498Z" fill="#0C3B68"/>
<path fill-rule="evenodd" clip-rule="evenodd" d="M210.875 566.783L194.091 587.542L208.133 598.956L222.176 602.143L230.558 599.97L238.94 589.571L210.875 566.783Z" fill="#65C4D8"/>
<path d="M208.133 598.956L222.176 610.369L230.558 599.97L222.176 602.143L208.133 598.956Z" fill="#4CAABE"/>
<path fill-rule="evenodd" clip-rule="evenodd" d="M233.255 539.108L216.471 559.867L230.499 571.251L244.526 573.143L252.908 572.236L261.29 561.837L233.255 539.108Z" fill="#65C4D8"/>
<path fill-rule="evenodd" clip-rule="evenodd" d="M252.864 543.546L238.851 532.192L255.635 511.433L283.641 534.103L275.259 544.502L266.877 546.643L252.864 543.546Z" fill="#65C4D8"/>
<path d="M230.499 571.251L244.526 582.635L252.908 572.236L244.526 573.143L230.499 571.251Z" fill="#4CAABE"/>
<path d="M252.864 543.546L266.877 554.901L275.259 544.502L266.877 546.643L252.864 543.546Z" fill="#4CAABE"/>
<path d="M661.13 20.1433L525.379 164.893H528.043L667.192 24.7683L661.13 20.1433Z" fill="#1E5384"/>
<path d="M525.379 164.893L502.754 189.018L504.191 188.913L528.043 164.893H525.379Z" fill="#4F8BC4"/>
<path d="M502.754 189.018L480.129 213.143L504.191 188.913L502.754 189.018Z" fill="#1E5384"/>
<path d="M549.755 225.893L569.13 199.143L568.085 193.727L549.199 223.236L549.755 225.893Z" fill="#1D4F7E"/>
<path d="M530.38 252.643L549.755 225.893L549.199 223.236L530.38 252.643Z" fill="#0C3B68"/>
<path d="M568.085 193.727L564.814 176.768L544.439 200.456L549.199 223.236L568.085 193.727Z" fill="#295F93"/>
<path fill-rule="evenodd" clip-rule="evenodd" d="M163.609 337.603L15.564 491.498L212.891 651.613L241.081 648.643L361.412 497.239L391.293 460.384L186.285 325.521L163.609 337.603ZM530.38 252.643L503.95 286.143L334.629 149.143L259.13 242.143L429.863 381.968L410.974 406.271L367.339 410.64L194.113 271.107L223.871 234.375L359.129 114.143L393.129 85.6433L435.629 120.143L413.629 158.643L480.129 213.143L504.191 188.913L526.564 187.268L544.439 200.456L549.199 223.236L530.38 252.643ZM564.814 176.768L673.255 29.3933L667.192 24.7683L528.043 164.893H548.564L564.814 176.768ZM261.231 504.517L278.015 483.758L305.992 506.368L297.609 516.767L289.227 527.167L275.229 515.842L261.231 504.517ZM240.714 453.615L268.691 476.225L260.294 486.594L251.897 496.964L237.899 485.639L223.901 474.314L240.714 453.615ZM194.091 587.542L210.875 566.783L238.94 589.571L230.558 599.97L222.176 610.369L208.133 598.956L194.091 587.542ZM173.457 536.403L156.644 557.103L170.686 568.516L184.728 579.93L193.125 569.56L201.522 559.191L173.457 536.403ZM136.038 506.023L164.103 528.811L155.692 539.151L147.28 549.491L133.238 538.077L119.196 526.664L136.038 506.023ZM109.833 519.051L118.259 508.741L126.685 498.431L98.6201 475.643L81.7483 496.224L95.7906 507.638L109.833 519.051ZM132.301 491.554L140.727 481.243L149.153 470.933L121.117 448.205L104.246 468.786L118.273 480.17L132.301 491.554ZM266.877 554.901L252.864 543.546L238.851 532.192L255.635 511.433L283.641 534.103L275.259 544.502L266.877 554.901ZM216.471 559.867L233.255 539.108L261.29 561.837L252.908 572.236L244.526 582.635L230.499 571.251L216.471 559.867ZM201.482 501.911L215.495 513.265L229.507 524.619L237.904 514.25L246.301 503.88L218.295 481.211L201.482 501.911ZM207.118 552.275L215.514 541.905L223.911 531.536L195.876 508.807L179.063 529.507L193.09 540.891L207.118 552.275ZM208.961 473.658L200.55 483.998L192.138 494.338L178.125 482.983L164.112 471.629L180.955 450.989L208.961 473.658ZM169.709 521.914L178.121 511.574L186.532 501.234L158.497 478.506L141.654 499.146L155.682 510.53L169.709 521.914ZM203.413 423.471L231.39 446.081L222.978 456.421L214.567 466.761L200.569 455.436L186.571 444.112L203.413 423.471ZM149.24 413.909L166.112 393.328L194.089 415.938L185.663 426.248L177.237 436.559L163.239 425.234L149.24 413.909ZM171.621 443.435L163.195 453.746L154.769 464.056L140.756 452.702L126.743 441.348L143.615 420.766L171.621 443.435Z" fill="#0E4578"/>
<path d="M564.814 176.768L568.085 193.727L673.255 29.3933L564.814 176.768Z" fill="#0D4173"/>
<path d="M526.564 187.268L544.439 200.456L564.814 176.768L548.564 164.893H528.043L504.191 188.913L526.564 187.268Z" fill="#326697"/>
<path fill-rule="evenodd" clip-rule="evenodd" d="M173.457 536.403L156.644 557.103L170.686 568.516L182.564 572.236L193.125 569.56L201.522 559.191L173.457 536.403Z" fill="#65C4D8"/>
<path fill-rule="evenodd" clip-rule="evenodd" d="M223.911 531.536L215.514 541.905L193.09 540.891L179.063 529.507L195.876 508.807L223.911 531.536Z" fill="#65C4D8"/>
<path fill-rule="evenodd" clip-rule="evenodd" d="M201.482 501.911L215.495 513.265L237.904 514.25L246.301 503.88L218.295 481.211L201.482 501.911Z" fill="#65C4D8"/>
<path fill-rule="evenodd" clip-rule="evenodd" d="M240.714 453.615L268.691 476.225L260.294 486.594L251.897 491.554L237.899 485.639L223.901 474.314L240.714 453.615Z" fill="#65C4D8"/>
<path fill-rule="evenodd" clip-rule="evenodd" d="M203.413 423.471L231.39 446.081L222.978 456.421L214.567 460.643L200.569 455.436L186.571 444.112L203.413 423.471Z" fill="#65C4D8"/>
<path fill-rule="evenodd" clip-rule="evenodd" d="M208.961 473.658L200.55 483.998L191.064 487.643L178.125 482.983L164.112 471.629L180.955 450.989L208.961 473.658Z" fill="#65C4D8"/>
<path fill-rule="evenodd" clip-rule="evenodd" d="M164.103 528.811L136.038 506.023L119.196 526.664L133.238 538.077L145.564 541.905L155.692 539.151L164.103 528.811Z" fill="#65C4D8"/>
<path fill-rule="evenodd" clip-rule="evenodd" d="M118.259 508.741L126.685 498.431L98.6201 475.643L81.7483 496.224L95.7906 507.638L108.564 513.265L118.259 508.741Z" fill="#65C4D8"/>
<path fill-rule="evenodd" clip-rule="evenodd" d="M149.153 470.933L140.727 481.243L130.564 483.998L118.273 480.17L104.246 468.786L121.117 448.205L149.153 470.933Z" fill="#65C4D8"/>
<path fill-rule="evenodd" clip-rule="evenodd" d="M171.621 443.435L163.195 453.746L154.769 458.143L140.756 452.702L126.743 441.348L143.615 420.766L171.621 443.435Z" fill="#65C4D8"/>
<path fill-rule="evenodd" clip-rule="evenodd" d="M166.112 393.328L149.24 413.909L163.239 425.234L177.237 429.643L185.663 426.248L194.089 415.938L166.112 393.328Z" fill="#65C4D8"/>
<path d="M170.686 568.516L184.728 579.93L193.125 569.56L182.564 572.236L170.686 568.516Z" fill="#4CAABE"/>
<path d="M193.09 540.891L207.118 552.275L215.514 541.905L193.09 540.891Z" fill="#4CAABE"/>
<path d="M215.495 513.265L229.507 524.619L237.904 514.25L215.495 513.265Z" fill="#4CAABE"/>
<path d="M237.899 485.639L251.897 496.964L260.294 486.594L251.897 491.554L237.899 485.639Z" fill="#4CAABE"/>
<path d="M200.569 455.436L214.567 466.761L222.978 456.421L214.567 460.643L200.569 455.436Z" fill="#4CAABE"/>
<path d="M178.125 482.983L192.138 494.338L200.55 483.998L191.064 487.643L178.125 482.983Z" fill="#4CAABE"/>
<path d="M133.238 538.077L147.28 549.491L155.692 539.151L145.564 541.905L133.238 538.077Z" fill="#4CAABE"/>
<path d="M95.7906 507.638L109.833 519.051L118.259 508.741L108.564 513.265L95.7906 507.638Z" fill="#4CAABE"/>
<path d="M118.273 480.17L132.301 491.554L140.727 481.243L130.564 483.998L118.273 480.17Z" fill="#4CAABE"/>
<path d="M140.756 452.702L154.769 464.056L163.195 453.746L154.769 458.143L140.756 452.702Z" fill="#4CAABE"/>
<path d="M163.239 425.234L177.237 436.559L185.663 426.248L177.237 429.643L163.239 425.234Z" fill="#4CAABE"/>
<path fill-rule="evenodd" clip-rule="evenodd" d="M278.015 483.758L261.231 504.517L275.229 515.842L288.064 521.143L297.609 516.767L305.992 506.368L278.015 483.758Z" fill="#65C4D8"/>
<path d="M275.229 515.842L289.227 527.167L297.609 516.767L288.064 521.143L275.229 515.842Z" fill="#4CAABE"/>
<path fill-rule="evenodd" clip-rule="evenodd" d="M186.532 501.234L178.121 511.574L169.709 514.25L155.682 510.53L141.654 499.146L158.497 478.506L186.532 501.234Z" fill="#65C4D8"/>
<path d="M155.682 510.53L169.709 521.914L178.121 511.574L169.709 514.25L155.682 510.53Z" fill="#4CAABE"/>
<path d="M336.574 164.643L273.064 242.781L306.97 212.399L341.054 184.143L378.564 197.643L336.574 164.643Z" fill="#3481C8"/>
<path fill-rule="evenodd" clip-rule="evenodd" d="M510.129 291.143L334.629 149.143L259.13 242.143L429.863 381.968L433.129 384.643L510.129 291.143ZM273.064 242.781L336.574 164.643L378.564 197.643L341.054 184.143L306.97 212.399L273.064 242.781ZM306.97 212.399L286.42 237.741L290.59 241.122L287.245 245.247L291.828 248.963L295.172 244.839L299.388 248.258L306.152 239.917L309.818 242.89L303.055 251.231L307.27 254.649L303.926 258.774L308.554 262.527L311.899 258.403L316.023 261.747L336.574 236.406L331.991 232.69L311.812 257.573L308.1 254.563L314.864 246.222L310.648 242.804L320.682 230.431L316.099 226.714L306.065 239.087L301.849 235.669L295.086 244.009L291.42 241.036L311.599 216.152L306.97 212.399ZM324.665 275.592L344.807 250.754L341.141 247.781L337.796 251.906L333.168 248.152L336.884 243.57L341.054 246.951L344.436 242.781L357.359 253.261L353.977 257.431L358.193 260.85L354.477 265.433L349.802 261.642L353.147 257.518L349.481 254.545L329.339 279.382L324.665 275.592Z" fill="#296EAD"/>
<path d="M324.665 275.592L344.807 250.754L341.141 247.781L337.796 251.906L333.168 248.152L336.884 243.57L341.054 246.951L344.436 242.781L357.359 253.261L353.977 257.431L358.193 260.85L354.477 265.433L349.802 261.642L353.147 257.518L349.481 254.545L329.339 279.382L324.665 275.592Z" fill="#65C4D8"/>
<path d="M290.59 241.122L287.245 245.247L291.828 248.963L295.172 244.839L299.388 248.258L306.152 239.917L309.818 242.89L303.055 251.231L307.27 254.649L303.926 258.774L308.554 262.527L311.899 258.403L316.023 261.747L336.574 236.406L331.991 232.69L311.812 257.573L308.1 254.563L314.864 246.222L310.648 242.804L320.682 230.431L316.099 226.714L306.065 239.087L301.849 235.669L295.086 244.009L291.42 241.036L311.599 216.152L306.97 212.399L286.42 237.741L290.59 241.122Z" fill="#65C4D8"/>
<path d="M530.38 252.643L536.268 257.289L536.363 257.168L536.454 257.043L530.38 252.643ZM569.13 199.143L575.204 203.543L577.109 200.912L576.494 197.723L569.13 199.143ZM526.564 187.268L531.016 181.233L528.783 179.585L526.014 179.788L526.564 187.268ZM548.564 164.893L552.989 158.838L551.012 157.393H548.564V164.893ZM433.129 384.643L428.377 390.446L434.164 395.185L438.919 389.411L433.129 384.643ZM259.13 242.143L253.307 237.416L248.6 243.214L254.377 247.946L259.13 242.143ZM15.564 491.498L10.1589 486.298L4.50111 492.18L10.8383 497.322L15.564 491.498ZM163.609 337.603L160.082 330.984L159.03 331.544L158.204 332.403L163.609 337.603ZM391.293 460.384L387.172 466.649L396 454.544L391.293 460.384ZM240.714 453.615L245.428 447.782L239.609 443.079L234.892 448.886L240.714 453.615ZM268.691 476.225L274.519 480.945L279.244 475.11L273.405 470.392L268.691 476.225ZM203.413 423.471L208.127 417.638L202.321 412.946L197.602 418.73L203.413 423.471ZM231.39 446.081L237.208 450.814L241.956 444.977L236.104 440.248L231.39 446.081ZM287.245 245.247L281.42 240.523L276.696 246.348L282.521 251.072L287.245 245.247ZM290.59 241.122L296.415 245.846L301.139 240.021L295.314 235.297L290.59 241.122ZM286.42 237.741L280.594 233.017L275.871 238.842L281.696 243.566L286.42 237.741ZM306.97 212.399L302.184 206.625L302.073 206.717L301.965 206.814L306.97 212.399ZM311.599 216.152L317.424 220.876L322.148 215.051L316.323 210.327L311.599 216.152ZM291.42 241.036L285.595 236.312L280.871 242.137L286.696 246.861L291.42 241.036ZM295.086 244.009L290.362 249.834L296.187 254.558L300.911 248.733L295.086 244.009ZM301.849 235.669L306.573 229.843L300.748 225.119L296.024 230.945L301.849 235.669ZM306.065 239.087L301.341 244.913L307.167 249.637L311.891 243.811L306.065 239.087ZM316.099 226.714L320.823 220.889L314.998 216.165L310.274 221.99L316.099 226.714ZM320.682 230.431L326.507 235.155L331.231 229.329L325.406 224.605L320.682 230.431ZM310.648 242.804L304.823 238.08L300.099 243.905L305.924 248.629L310.648 242.804ZM314.864 246.222L320.689 250.946L325.413 245.121L319.588 240.397L314.864 246.222ZM308.1 254.563L302.275 249.839L297.551 255.664L303.376 260.388L308.1 254.563ZM311.812 257.573L307.088 263.398L312.914 268.122L317.638 262.297L311.812 257.573ZM331.991 232.69L336.715 226.864L330.89 222.14L326.166 227.966L331.991 232.69ZM336.574 236.406L342.399 241.13L347.123 235.304L341.298 230.58L336.574 236.406ZM316.023 261.747L311.299 267.573L317.124 272.297L321.848 266.471L316.023 261.747ZM311.899 258.403L316.623 252.577L310.798 247.854L306.074 253.679L311.899 258.403ZM308.554 262.527L303.83 268.352L309.656 273.076L314.38 267.251L308.554 262.527ZM303.926 258.774L298.101 254.05L293.377 259.875L299.202 264.599L303.926 258.774ZM307.27 254.649L313.096 259.373L317.82 253.548L311.994 248.824L307.27 254.649ZM303.055 251.231L297.229 246.507L292.505 252.332L298.331 257.056L303.055 251.231ZM309.818 242.89L315.643 247.614L320.367 241.789L314.542 237.065L309.818 242.89ZM306.152 239.917L310.876 234.092L305.051 229.368L300.327 235.193L306.152 239.917ZM299.388 248.258L294.664 254.083L300.49 258.807L305.214 252.982L299.388 248.258ZM295.172 244.839L299.896 239.013L294.071 234.289L289.347 240.115L295.172 244.839ZM291.828 248.963L287.104 254.788L292.929 259.512L297.653 253.687L291.828 248.963ZM324.665 275.592L318.84 270.868L314.116 276.693L319.941 281.417L324.665 275.592ZM344.807 250.754L350.632 255.478L355.356 249.653L349.531 244.929L344.807 250.754ZM341.141 247.781L345.865 241.956L340.039 237.232L335.315 243.057L341.141 247.781ZM337.796 251.906L333.072 257.731L338.897 262.455L343.621 256.63L337.796 251.906ZM333.168 248.152L327.342 243.428L322.618 249.254L328.444 253.978L333.168 248.152ZM336.884 243.57L341.608 237.744L335.782 233.02L331.058 238.846L336.884 243.57ZM341.054 246.951L336.33 252.777L342.155 257.501L346.879 251.675L341.054 246.951ZM344.436 242.781L349.16 236.956L343.334 232.232L338.61 238.057L344.436 242.781ZM357.359 253.261L363.184 257.985L367.908 252.16L362.082 247.436L357.359 253.261ZM353.977 257.431L348.151 252.707L343.427 258.532L349.253 263.256L353.977 257.431ZM358.193 260.85L364.018 265.574L368.742 259.749L362.917 255.025L358.193 260.85ZM354.477 265.433L349.753 271.258L355.578 275.982L360.302 270.157L354.477 265.433ZM349.802 261.642L343.977 256.918L339.253 262.743L345.078 267.467L349.802 261.642ZM353.147 257.518L358.972 262.242L363.696 256.416L357.871 251.692L353.147 257.518ZM349.481 254.545L354.205 248.719L348.38 243.996L343.656 249.821L349.481 254.545ZM329.339 279.382L324.615 285.208L330.44 289.932L335.164 284.106L329.339 279.382ZM216.471 559.867L210.639 555.152L205.932 560.973L211.745 565.691L216.471 559.867ZM233.255 539.108L237.978 533.282L232.144 528.553L227.423 534.393L233.255 539.108ZM244.526 582.635L239.8 588.459L245.643 593.2L250.365 587.342L244.526 582.635ZM261.29 561.837L267.13 566.543L271.823 560.721L266.013 556.011L261.29 561.837ZM207.118 552.275L202.392 558.098L208.222 562.829L212.946 556.994L207.118 552.275ZM223.911 531.536L229.74 536.255L234.457 530.43L228.634 525.71L223.911 531.536ZM238.851 532.192L233.019 527.477L228.308 533.303L234.129 538.019L238.851 532.192ZM266.877 554.901L262.155 560.728L267.997 565.462L272.716 559.607L266.877 554.901ZM283.641 534.103L289.48 538.809L294.177 532.982L288.36 528.273L283.641 534.103ZM255.635 511.433L260.353 505.604L254.521 500.882L249.803 506.718L255.635 511.433ZM229.507 524.619L224.786 530.446L230.615 535.17L235.336 529.339L229.507 524.619ZM201.482 501.911L195.66 497.182L190.926 503.01L196.76 507.738L201.482 501.911ZM246.301 503.88L252.13 508.6L256.85 502.77L251.02 498.051L246.301 503.88ZM218.295 481.211L223.013 475.381L217.194 470.671L212.473 476.482L218.295 481.211ZM195.876 508.807L200.599 502.981L194.778 498.262L190.054 504.079L195.876 508.807ZM179.063 529.507L173.241 524.778L168.51 530.602L174.337 535.33L179.063 529.507ZM169.709 521.914L164.983 527.738L170.8 532.458L175.527 526.647L169.709 521.914ZM186.532 501.234L192.35 505.967L197.091 500.139L191.255 495.408L186.532 501.234ZM158.497 478.506L163.22 472.68L157.412 467.972L152.686 473.764L158.497 478.506ZM141.654 499.146L135.843 494.405L131.089 500.231L136.928 504.97L141.654 499.146ZM192.138 494.338L187.416 500.165L193.232 504.877L197.956 499.071L192.138 494.338ZM208.961 473.658L214.779 478.391L219.524 472.558L213.68 467.828L208.961 473.658ZM180.955 450.989L185.673 445.159L179.867 440.459L175.144 446.247L180.955 450.989ZM164.112 471.629L158.301 466.887L153.543 472.718L159.391 477.456L164.112 471.629ZM154.769 464.056L150.047 469.883L155.85 474.585L160.576 468.802L154.769 464.056ZM171.621 443.435L177.428 448.181L182.197 442.347L176.34 437.606L171.621 443.435ZM143.615 420.766L148.333 414.937L142.54 410.247L137.815 416.011L143.615 420.766ZM126.743 441.348L120.943 436.593L116.161 442.426L122.021 447.175L126.743 441.348ZM149.24 413.909L143.44 409.154L138.655 414.992L144.523 419.74L149.24 413.909ZM166.112 393.328L170.826 387.495L165.034 382.813L160.312 388.573L166.112 393.328ZM194.089 415.938L199.896 420.684L204.668 414.845L198.803 410.105L194.089 415.938ZM177.237 436.559L172.52 442.389L178.322 447.083L183.044 441.305L177.237 436.559ZM186.571 444.112L180.76 439.37L175.998 445.205L181.853 449.943L186.571 444.112ZM214.567 466.761L209.85 472.592L215.665 477.296L220.385 471.494L214.567 466.761ZM223.901 474.314L218.079 469.586L213.341 475.419L219.184 480.145L223.901 474.314ZM251.897 496.964L247.18 502.795L253.008 507.51L257.726 501.684L251.897 496.964ZM261.231 504.517L255.399 499.802L250.685 505.632L256.514 510.348L261.231 504.517ZM278.015 483.758L282.729 477.925L276.897 473.212L272.182 479.043L278.015 483.758ZM305.992 506.368L311.831 511.075L316.531 505.243L310.706 500.535L305.992 506.368ZM289.227 527.167L284.51 532.997L290.352 537.723L295.067 531.873L289.227 527.167ZM132.301 491.554L127.575 497.377L133.378 502.087L138.108 496.3L132.301 491.554ZM149.153 470.933L154.96 475.679L159.725 469.849L153.876 465.107L149.153 470.933ZM136.038 506.023L140.766 500.201L134.958 495.485L130.227 501.282L136.038 506.023ZM164.103 528.811L169.921 533.544L174.659 527.72L168.831 522.988L164.103 528.811ZM147.28 549.491L142.55 555.311L148.367 560.039L153.098 554.224L147.28 549.491ZM119.196 526.664L113.385 521.922L108.634 527.744L114.465 532.484L119.196 526.664ZM126.685 498.431L132.492 503.177L137.254 497.351L131.413 492.608L126.685 498.431ZM109.833 519.051L105.102 524.871L110.907 529.589L115.64 523.797L109.833 519.051ZM81.7483 496.224L75.9481 491.47L71.1735 497.294L77.0178 502.044L81.7483 496.224ZM98.6201 475.643L103.348 469.821L97.5525 465.115L92.8199 470.888L98.6201 475.643ZM104.246 468.786L98.4455 464.031L93.6672 469.86L99.5196 474.61L104.246 468.786ZM121.117 448.205L125.841 442.379L120.046 437.681L115.317 443.45L121.117 448.205ZM156.644 557.103L150.822 552.374L146.095 558.194L151.913 562.923L156.644 557.103ZM173.457 536.403L178.184 530.581L172.363 525.854L167.635 531.675L173.457 536.403ZM201.522 559.191L207.35 563.911L212.064 558.09L206.249 553.368L201.522 559.191ZM184.728 579.93L179.998 585.75L185.828 590.489L190.557 584.65L184.728 579.93ZM194.091 587.542L188.259 582.827L183.556 588.644L189.361 593.362L194.091 587.542ZM210.875 566.783L215.602 560.961L209.768 556.224L205.043 562.068L210.875 566.783ZM238.94 589.571L244.779 594.278L249.469 588.459L243.667 583.749L238.94 589.571ZM222.176 610.369L217.445 616.189L223.289 620.939L228.015 615.076L222.176 610.369ZM367.339 410.64L362.634 416.481L365.028 418.409L368.086 418.103L367.339 410.64ZM429.863 381.968L434.615 376.166L434.615 376.166L429.863 381.968ZM410.974 406.271L411.722 413.733L414.922 413.413L416.896 410.873L410.974 406.271ZM208.961 313.438L213.667 307.599L213.667 307.599L208.961 313.438ZM673.255 29.3933L679.572 33.4361L667.214 24.9483L673.255 29.3933ZM212.891 651.613L208.165 657.437L210.582 659.397L213.677 659.071L212.891 651.613ZM241.081 648.643L241.866 656.102L244.995 655.772L246.952 653.31L241.081 648.643ZM186.285 325.521L190.407 319.255L186.687 316.808L182.758 318.902L186.285 325.521ZM208.133 598.956L203.403 604.776L203.403 604.776L208.133 598.956ZM222.176 602.143L220.515 609.457L222.293 609.861L224.058 609.403L222.176 602.143ZM230.558 599.97L236.397 604.677L236.397 604.677L230.558 599.97ZM244.526 573.143L243.524 580.576L244.427 580.698L245.333 580.6L244.526 573.143ZM266.877 546.643L265.258 553.967L267.003 554.352L268.733 553.91L266.877 546.643ZM275.259 544.502L281.098 549.208L281.098 549.208L275.259 544.502ZM170.686 568.516L165.955 574.336L165.955 574.336L170.686 568.516ZM193.09 540.891L188.364 546.714L188.364 546.714L193.09 540.891ZM215.514 541.905L221.343 546.625L221.343 546.625L215.514 541.905ZM237.904 514.25L243.733 518.97L243.733 518.97L237.904 514.25ZM260.294 486.594L266.123 491.314L266.123 491.314L260.294 486.594ZM200.569 455.436L195.852 461.267L195.852 461.267L200.569 455.436ZM222.978 456.421L228.796 461.154L228.796 461.154L222.978 456.421ZM200.55 483.998L206.368 488.731L206.368 488.731L200.55 483.998ZM163.239 425.234L158.521 431.065L158.521 431.065L163.239 425.234ZM169.709 514.25L167.787 521.499L169.9 522.059L171.983 521.397L169.709 514.25ZM191.064 487.643L188.523 494.7L191.149 495.645L193.755 494.644L191.064 487.643ZM214.567 460.643L211.952 467.673L215.013 468.811L217.931 467.346L214.567 460.643ZM251.897 491.554L248.978 498.462L252.458 499.933L255.711 498.012L251.897 491.554ZM288.064 521.143L285.201 528.075L288.22 529.322L291.189 527.961L288.064 521.143ZM182.564 572.236L180.323 579.393L182.348 580.027L184.406 579.506L182.564 572.236ZM145.564 541.905L143.34 549.068L145.425 549.715L147.532 549.142L145.564 541.905ZM108.564 513.265L105.54 520.128L108.653 521.5L111.735 520.061L108.564 513.265ZM130.564 483.998L128.334 491.159L130.418 491.808L132.526 491.237L130.564 483.998ZM154.769 458.143L152.054 465.135L155.224 466.366L158.239 464.792L154.769 458.143ZM177.237 429.643L174.983 436.797L177.547 437.604L180.04 436.6L177.237 429.643ZM273.064 242.781L267.244 238.051L278.069 248.367L273.064 242.781ZM336.574 164.643L341.208 158.746L335.407 154.188L330.754 159.913L336.574 164.643ZM378.564 197.643L376.024 204.7L383.198 191.746L378.564 197.643ZM341.054 184.143L343.594 177.086L339.564 175.636L336.267 178.369L341.054 184.143ZM544.439 200.456L548.892 194.42L531.016 181.233L526.564 187.268L522.111 193.304L539.986 206.491L544.439 200.456ZM548.564 164.893L544.139 170.949L560.389 182.824L564.814 176.768L569.239 170.713L552.989 158.838L548.564 164.893ZM510.129 291.143L504.34 286.375L427.34 379.875L433.129 384.643L438.919 389.411L515.919 295.911L510.129 291.143ZM259.13 242.143L264.952 246.87L340.452 153.87L334.629 149.143L328.807 144.416L253.307 237.416L259.13 242.143ZM268.691 476.225L273.405 470.392L245.428 447.782L240.714 453.615L236 459.448L263.976 482.058L268.691 476.225ZM231.39 446.081L236.104 440.248L208.127 417.638L203.413 423.471L198.699 429.304L226.676 451.915L231.39 446.081ZM287.245 245.247L293.071 249.971L296.415 245.846L290.59 241.122L284.765 236.398L281.42 240.523L287.245 245.247ZM290.59 241.122L295.314 235.297L291.144 231.915L286.42 237.741L281.696 243.566L285.866 246.948L290.59 241.122ZM286.42 237.741L292.245 242.465L312.796 217.123L306.97 212.399L301.145 207.675L280.594 233.017L286.42 237.741ZM306.97 212.399L302.246 218.224L306.875 221.978L311.599 216.152L316.323 210.327L311.694 206.574L306.97 212.399ZM311.599 216.152L305.773 211.429L285.595 236.312L291.42 241.036L297.245 245.76L317.424 220.876L311.599 216.152ZM291.42 241.036L286.696 246.861L290.362 249.834L295.086 244.009L299.81 238.183L296.144 235.211L291.42 241.036ZM295.086 244.009L300.911 248.733L307.675 240.392L301.849 235.669L296.024 230.945L289.261 239.285L295.086 244.009ZM301.849 235.669L297.125 241.494L301.341 244.913L306.065 239.087L310.789 233.262L306.573 229.843L301.849 235.669ZM306.065 239.087L311.891 243.811L321.924 231.438L316.099 226.714L310.274 221.99L300.24 234.363L306.065 239.087ZM316.099 226.714L311.375 232.54L315.958 236.256L320.682 230.431L325.406 224.605L320.823 220.889L316.099 226.714ZM320.682 230.431L314.856 225.707L304.823 238.08L310.648 242.804L316.473 247.528L326.507 235.155L320.682 230.431ZM310.648 242.804L305.924 248.629L310.14 252.048L314.864 246.222L319.588 240.397L315.372 236.978L310.648 242.804ZM314.864 246.222L309.038 241.499L302.275 249.839L308.1 254.563L313.926 259.287L320.689 250.946L314.864 246.222ZM308.1 254.563L303.376 260.388L307.088 263.398L311.812 257.573L316.536 251.748L312.824 248.737L308.1 254.563ZM311.812 257.573L317.638 262.297L337.816 237.414L331.991 232.69L326.166 227.966L305.987 252.849L311.812 257.573ZM331.991 232.69L327.267 238.515L331.85 242.231L336.574 236.406L341.298 230.58L336.715 226.864L331.991 232.69ZM336.574 236.406L330.748 231.682L310.198 257.023L316.023 261.747L321.848 266.471L342.399 241.13L336.574 236.406ZM316.023 261.747L320.747 255.922L316.623 252.577L311.899 258.403L307.175 264.228L311.299 267.573L316.023 261.747ZM311.899 258.403L306.074 253.679L302.729 257.803L308.554 262.527L314.38 267.251L317.724 263.127L311.899 258.403ZM308.554 262.527L313.278 256.702L308.65 252.948L303.926 258.774L299.202 264.599L303.83 268.352L308.554 262.527ZM303.926 258.774L309.751 263.498L313.096 259.373L307.27 254.649L301.445 249.925L298.101 254.05L303.926 258.774ZM307.27 254.649L311.994 248.824L307.778 245.405L303.055 251.231L298.331 257.056L302.547 260.475L307.27 254.649ZM303.055 251.231L308.88 255.954L315.643 247.614L309.818 242.89L303.993 238.166L297.229 246.507L303.055 251.231ZM309.818 242.89L314.542 237.065L310.876 234.092L306.152 239.917L301.428 245.743L305.094 248.716L309.818 242.89ZM306.152 239.917L300.327 235.193L293.563 243.534L299.388 248.258L305.214 252.982L311.977 244.641L306.152 239.917ZM299.388 248.258L304.112 242.432L299.896 239.013L295.172 244.839L290.449 250.664L294.664 254.083L299.388 248.258ZM295.172 244.839L289.347 240.115L286.003 244.239L291.828 248.963L297.653 253.687L300.998 249.563L295.172 244.839ZM291.828 248.963L296.552 243.138L291.969 239.421L287.245 245.247L282.521 251.072L287.104 254.788L291.828 248.963ZM324.665 275.592L330.49 280.316L350.632 255.478L344.807 250.754L338.981 246.03L318.84 270.868L324.665 275.592ZM344.807 250.754L349.531 244.929L345.865 241.956L341.141 247.781L336.417 253.607L340.083 256.58L344.807 250.754ZM341.141 247.781L335.315 243.057L331.971 247.182L337.796 251.906L343.621 256.63L346.966 252.505L341.141 247.781ZM337.796 251.906L342.52 246.08L337.892 242.327L333.168 248.152L328.444 253.978L333.072 257.731L337.796 251.906ZM333.168 248.152L338.993 252.876L342.709 248.294L336.884 243.57L331.058 238.846L327.342 243.428L333.168 248.152ZM336.884 243.57L332.16 249.395L336.33 252.777L341.054 246.951L345.778 241.126L341.608 237.744L336.884 243.57ZM341.054 246.951L346.879 251.675L350.261 247.505L344.436 242.781L338.61 238.057L335.229 242.228L341.054 246.951ZM344.436 242.781L339.712 248.607L352.635 259.086L357.359 253.261L362.082 247.436L349.16 236.956L344.436 242.781ZM357.359 253.261L351.533 248.537L348.151 252.707L353.977 257.431L359.802 262.155L363.184 257.985L357.359 253.261ZM353.977 257.431L349.253 263.256L353.469 266.675L358.193 260.85L362.917 255.025L358.701 251.606L353.977 257.431ZM358.193 260.85L352.367 256.126L348.651 260.709L354.477 265.433L360.302 270.157L364.018 265.574L358.193 260.85ZM354.477 265.433L359.201 259.607L354.526 255.817L349.802 261.642L345.078 267.467L349.753 271.258L354.477 265.433ZM349.802 261.642L355.628 266.366L358.972 262.242L353.147 257.518L347.322 252.794L343.977 256.918L349.802 261.642ZM353.147 257.518L357.871 251.692L354.205 248.719L349.481 254.545L344.757 260.37L348.423 263.343L353.147 257.518ZM349.481 254.545L343.656 249.821L323.514 274.658L329.339 279.382L335.164 284.106L355.306 259.269L349.481 254.545ZM329.339 279.382L334.063 273.557L329.389 269.766L324.665 275.592L319.941 281.417L324.615 285.208L329.339 279.382ZM216.471 559.867L222.303 564.583L239.087 543.824L233.255 539.108L227.423 534.393L210.639 555.152L216.471 559.867ZM233.255 539.108L228.532 544.934L256.567 567.663L261.29 561.837L266.013 556.011L237.978 533.282L233.255 539.108ZM283.641 534.103L288.36 528.273L260.353 505.604L255.635 511.433L250.916 517.263L278.922 539.932L283.641 534.103ZM255.635 511.433L249.803 506.718L233.019 527.477L238.851 532.192L244.683 536.907L261.467 516.149L255.635 511.433ZM246.301 503.88L251.02 498.051L223.013 475.381L218.295 481.211L213.576 487.041L241.582 509.71L246.301 503.88ZM218.295 481.211L212.473 476.482L195.66 497.182L201.482 501.911L207.303 506.639L224.116 485.939L218.295 481.211ZM223.911 531.536L228.634 525.71L200.599 502.981L195.876 508.807L191.153 514.633L219.188 537.362L223.911 531.536ZM195.876 508.807L190.054 504.079L173.241 524.778L179.063 529.507L184.884 534.235L201.697 513.536L195.876 508.807ZM186.532 501.234L191.255 495.408L163.22 472.68L158.497 478.506L153.773 484.332L181.809 507.06L186.532 501.234ZM158.497 478.506L152.686 473.764L135.843 494.405L141.654 499.146L147.465 503.888L164.307 483.248L158.497 478.506ZM208.961 473.658L213.68 467.828L185.673 445.159L180.955 450.989L176.236 456.818L204.242 479.487L208.961 473.658ZM164.112 471.629L169.923 476.371L186.766 455.73L180.955 450.989L175.144 446.247L158.301 466.887L164.112 471.629ZM171.621 443.435L176.34 437.606L148.333 414.937L143.615 420.766L138.896 426.596L166.902 449.265L171.621 443.435ZM143.615 420.766L137.815 416.011L120.943 436.593L126.743 441.348L132.543 446.102L149.415 425.521L143.615 420.766ZM149.24 413.909L155.041 418.664L171.912 398.083L166.112 393.328L160.312 388.573L143.44 409.154L149.24 413.909ZM166.112 393.328L161.398 399.161L189.375 421.771L194.089 415.938L198.803 410.105L170.826 387.495L166.112 393.328ZM203.413 423.471L197.602 418.73L180.76 439.37L186.571 444.112L192.381 448.853L209.224 428.213L203.413 423.471ZM223.901 474.314L229.722 479.043L246.535 458.343L240.714 453.615L234.892 448.886L218.079 469.586L223.901 474.314ZM261.231 504.517L267.063 509.232L283.847 488.474L278.015 483.758L272.182 479.043L255.399 499.802L261.231 504.517ZM278.015 483.758L273.3 489.591L301.277 512.202L305.992 506.368L310.706 500.535L282.729 477.925L278.015 483.758ZM136.038 506.023L131.311 511.846L159.376 534.633L164.103 528.811L168.831 522.988L140.766 500.201L136.038 506.023ZM119.196 526.664L125.007 531.405L141.849 510.765L136.038 506.023L130.227 501.282L113.385 521.922L119.196 526.664ZM81.7483 496.224L87.5485 500.979L104.42 480.398L98.6201 475.643L92.8199 470.888L75.9481 491.47L81.7483 496.224ZM98.6201 475.643L93.8926 481.466L121.957 504.253L126.685 498.431L131.413 492.608L103.348 469.821L98.6201 475.643ZM104.246 468.786L110.046 473.541L126.918 452.959L121.117 448.205L115.317 443.45L98.4455 464.031L104.246 468.786ZM121.117 448.205L116.394 454.031L144.43 476.759L149.153 470.933L153.876 465.107L125.841 442.379L121.117 448.205ZM156.644 557.103L162.465 561.831L179.278 541.132L173.457 536.403L167.635 531.675L150.822 552.374L156.644 557.103ZM173.457 536.403L168.729 542.226L196.794 565.013L201.522 559.191L206.249 553.368L178.184 530.581L173.457 536.403ZM194.091 587.542L199.923 592.258L216.707 571.499L210.875 566.783L205.043 562.068L188.259 582.827L194.091 587.542ZM210.875 566.783L206.147 572.606L234.212 595.393L238.94 589.571L243.667 583.749L215.602 560.961L210.875 566.783ZM429.863 381.968L434.615 376.166L263.882 236.341L259.13 242.143L254.377 247.946L425.111 387.771L429.863 381.968ZM433.129 384.643L437.882 378.841L434.615 376.166L429.863 381.968L425.111 387.771L428.377 390.446L433.129 384.643ZM194.113 271.107L189.408 276.948L362.634 416.481L367.339 410.64L372.044 404.799L198.818 265.266L194.113 271.107ZM367.339 410.64L368.086 418.103L411.722 413.733L410.974 406.271L410.227 398.808L366.592 403.177L367.339 410.64ZM410.974 406.271L416.896 410.873L435.785 386.571L429.863 381.968L423.941 377.366L405.053 401.668L410.974 406.271ZM223.871 234.375L228.854 239.981L364.112 119.749L359.129 114.143L354.147 108.538L218.889 228.77L223.871 234.375ZM15.564 491.498L20.969 496.697L169.014 342.802L163.609 337.603L158.204 332.403L10.1589 486.298L15.564 491.498ZM193.367 300.871L188.661 306.711L204.255 319.278L208.961 313.438L213.667 307.599L198.073 295.031L193.367 300.871ZM208.961 313.438L204.255 319.278L386.587 466.223L391.293 460.384L396 454.544L213.667 307.599L208.961 313.438ZM503.95 286.143L509.838 290.789L536.268 257.289L530.38 252.643L524.491 247.998L498.062 281.498L503.95 286.143ZM530.38 252.643L536.454 257.043L691.454 43.0427L685.38 38.6433L679.305 34.2438L524.305 248.244L530.38 252.643ZM564.814 176.768L557.45 178.189L560.721 195.147L568.085 193.727L575.449 192.306L572.178 175.348L564.814 176.768ZM568.085 193.727L574.402 197.77L679.572 33.4361L673.255 29.3933L666.937 25.3505L561.768 189.684L568.085 193.727ZM568.085 193.727L560.721 195.147L561.765 200.564L569.13 199.143L576.494 197.723L575.449 192.306L568.085 193.727ZM569.13 199.143L563.055 194.744L524.305 248.244L530.38 252.643L536.454 257.043L575.204 203.543L569.13 199.143ZM15.564 491.498L10.8383 497.322L208.165 657.437L212.891 651.613L217.617 645.789L20.2896 485.674L15.564 491.498ZM241.081 648.643L246.952 653.31L367.284 501.905L361.412 497.239L355.541 492.572L235.209 643.977L241.081 648.643ZM212.891 651.613L213.677 659.071L241.866 656.102L241.081 648.643L240.295 641.185L212.105 644.154L212.891 651.613ZM163.609 337.603L167.136 344.222L189.812 332.14L186.285 325.521L182.758 318.902L160.082 330.984L163.609 337.603ZM186.285 325.521L182.163 331.786L387.172 466.649L391.293 460.384L395.415 454.118L190.407 319.255L186.285 325.521ZM222.176 610.369L226.906 604.549L212.864 593.136L208.133 598.956L203.403 604.776L217.445 616.189L222.176 610.369ZM208.133 598.956L212.864 593.136L198.822 581.722L194.091 587.542L189.361 593.362L203.403 604.776L208.133 598.956ZM208.133 598.956L206.473 606.27L220.515 609.457L222.176 602.143L223.836 594.829L209.794 591.642L208.133 598.956ZM222.176 610.369L228.015 615.076L236.397 604.677L230.558 599.97L224.718 595.263L216.336 605.662L222.176 610.369ZM230.558 599.97L236.397 604.677L244.779 594.278L238.94 589.571L233.101 584.864L224.718 595.263L230.558 599.97ZM222.176 602.143L224.058 609.403L232.44 607.23L230.558 599.97L228.675 592.71L220.293 594.883L222.176 602.143ZM216.471 559.867L211.745 565.691L225.773 577.075L230.499 571.251L235.225 565.427L221.197 554.044L216.471 559.867ZM230.499 571.251L225.773 577.075L239.8 588.459L244.526 582.635L249.252 576.811L235.225 565.427L230.499 571.251ZM230.499 571.251L229.496 578.684L243.524 580.576L244.526 573.143L245.529 565.711L231.501 563.818L230.499 571.251ZM244.526 582.635L250.365 587.342L258.748 576.943L252.908 572.236L247.069 567.529L238.687 577.928L244.526 582.635ZM252.908 572.236L258.748 576.943L267.13 566.543L261.29 561.837L255.451 557.13L247.069 567.529L252.908 572.236ZM244.526 573.143L245.333 580.6L253.715 579.692L252.908 572.236L252.101 564.779L243.719 565.687L244.526 573.143ZM238.851 532.192L234.129 538.019L248.142 549.374L252.864 543.546L257.586 537.719L243.573 526.365L238.851 532.192ZM252.864 543.546L248.142 549.374L262.155 560.728L266.877 554.901L271.598 549.074L257.586 537.719L252.864 543.546ZM252.864 543.546L251.245 550.87L265.258 553.967L266.877 546.643L268.495 539.32L254.482 536.223L252.864 543.546ZM266.877 554.901L272.716 559.607L281.098 549.208L275.259 544.502L269.42 539.795L261.038 550.194L266.877 554.901ZM275.259 544.502L281.098 549.208L289.48 538.809L283.641 534.103L277.802 529.396L269.42 539.795L275.259 544.502ZM266.877 546.643L268.733 553.91L277.115 551.768L275.259 544.502L273.402 537.235L265.02 539.377L266.877 546.643ZM667.192 24.7683L661.87 19.4835L522.722 159.609L528.043 164.893L533.365 170.178L672.514 30.053L667.192 24.7683ZM528.043 164.893V172.393H548.564V164.893V157.393H528.043V164.893ZM525.379 164.893V172.393H528.043V164.893V157.393H525.379V164.893ZM528.043 164.893L522.722 159.609L498.869 183.628L504.191 188.913L509.513 194.197L533.365 170.178L528.043 164.893ZM504.191 188.913L504.741 196.392L527.114 194.748L526.564 187.268L526.014 179.788L503.642 181.433L504.191 188.913ZM480.129 213.143L485.451 218.428L509.513 194.197L504.191 188.913L498.869 183.628L474.808 207.859L480.129 213.143ZM504.191 188.913L503.642 181.433L502.205 181.538L502.754 189.018L503.304 196.498L504.741 196.392L504.191 188.913ZM568.085 193.727L561.768 189.684L542.882 219.194L549.199 223.236L555.516 227.279L574.402 197.77L568.085 193.727ZM549.199 223.236L556.541 221.702L551.78 198.922L544.439 200.456L537.098 201.99L541.858 224.77L549.199 223.236ZM549.199 223.236L542.882 219.194L524.062 248.6L530.38 252.643L536.697 256.686L555.516 227.279L549.199 223.236ZM549.755 225.893L557.096 224.359L556.541 221.702L549.199 223.236L541.858 224.77L542.413 227.427L549.755 225.893ZM544.439 200.456L550.125 205.347L570.5 181.659L564.814 176.768L559.128 171.877L538.753 195.565L544.439 200.456ZM564.814 176.768L570.855 181.213L679.295 33.8382L673.255 29.3933L667.214 24.9483L558.773 172.323L564.814 176.768ZM184.728 579.93L189.458 574.11L175.416 562.696L170.686 568.516L165.955 574.336L179.998 585.75L184.728 579.93ZM170.686 568.516L175.416 562.696L161.374 551.283L156.644 557.103L151.913 562.923L165.955 574.336L170.686 568.516ZM201.522 559.191L195.693 554.471L187.296 564.841L193.125 569.56L198.953 574.28L207.35 563.911L201.522 559.191ZM193.125 569.56L187.296 564.841L178.899 575.21L184.728 579.93L190.557 584.65L198.953 574.28L193.125 569.56ZM179.063 529.507L174.337 535.33L188.364 546.714L193.09 540.891L197.816 535.067L183.789 523.683L179.063 529.507ZM193.09 540.891L188.364 546.714L202.392 558.098L207.118 552.275L211.844 546.451L197.816 535.067L193.09 540.891ZM207.118 552.275L212.946 556.994L221.343 546.625L215.514 541.905L209.686 537.185L201.289 547.555L207.118 552.275ZM215.514 541.905L221.343 546.625L229.74 536.255L223.911 531.536L218.083 526.816L209.686 537.185L215.514 541.905ZM193.09 540.891L192.751 548.383L215.176 549.397L215.514 541.905L215.853 534.413L193.429 533.398L193.09 540.891ZM229.507 524.619L234.229 518.792L220.216 507.438L215.495 513.265L210.773 519.092L224.786 530.446L229.507 524.619ZM215.495 513.265L220.216 507.438L206.203 496.083L201.482 501.911L196.76 507.738L210.773 519.092L215.495 513.265ZM229.507 524.619L235.336 529.339L243.733 518.97L237.904 514.25L232.076 509.53L223.679 519.899L229.507 524.619ZM237.904 514.25L243.733 518.97L252.13 508.6L246.301 503.88L240.472 499.16L232.076 509.53L237.904 514.25ZM215.495 513.265L215.165 520.758L237.575 521.742L237.904 514.25L238.234 506.757L215.824 505.772L215.495 513.265ZM251.897 496.964L256.614 491.133L242.616 479.808L237.899 485.639L233.182 491.47L247.18 502.795L251.897 496.964ZM237.899 485.639L242.616 479.808L228.618 468.484L223.901 474.314L219.184 480.145L233.182 491.47L237.899 485.639ZM251.897 496.964L257.726 501.684L266.123 491.314L260.294 486.594L254.465 481.875L246.069 492.244L251.897 496.964ZM260.294 486.594L266.123 491.314L274.519 480.945L268.691 476.225L262.862 471.505L254.465 481.875L260.294 486.594ZM289.227 527.167L293.945 521.336L279.946 510.011L275.229 515.842L270.512 521.673L284.51 532.997L289.227 527.167ZM275.229 515.842L279.946 510.011L265.948 498.686L261.231 504.517L256.514 510.348L270.512 521.673L275.229 515.842ZM289.227 527.167L295.067 531.873L303.449 521.474L297.609 516.767L291.77 512.061L283.388 522.46L289.227 527.167ZM297.609 516.767L303.449 521.474L311.831 511.075L305.992 506.368L300.152 501.662L291.77 512.061L297.609 516.767ZM186.571 444.112L181.853 449.943L195.852 461.267L200.569 455.436L205.286 449.606L191.288 438.281L186.571 444.112ZM200.569 455.436L195.852 461.267L209.85 472.592L214.567 466.761L219.284 460.93L205.286 449.606L200.569 455.436ZM214.567 466.761L220.385 471.494L228.796 461.154L222.978 456.421L217.16 451.688L208.749 462.028L214.567 466.761ZM222.978 456.421L228.796 461.154L237.208 450.814L231.39 446.081L225.572 441.348L217.16 451.688L222.978 456.421ZM164.112 471.629L159.391 477.456L173.404 488.811L178.125 482.983L182.847 477.156L168.834 465.802L164.112 471.629ZM178.125 482.983L173.404 488.811L187.416 500.165L192.138 494.338L196.86 488.511L182.847 477.156L178.125 482.983ZM192.138 494.338L197.956 499.071L206.368 488.731L200.55 483.998L194.732 479.265L186.32 489.605L192.138 494.338ZM200.55 483.998L206.368 488.731L214.779 478.391L208.961 473.658L203.143 468.925L194.732 479.265L200.55 483.998ZM126.743 441.348L122.021 447.175L136.034 458.529L140.756 452.702L145.478 446.875L131.465 435.52L126.743 441.348ZM140.756 452.702L136.034 458.529L150.047 469.883L154.769 464.056L159.49 458.229L145.478 446.875L140.756 452.702ZM154.769 464.056L160.576 468.802L169.002 458.492L163.195 453.746L157.388 449L148.961 459.31L154.769 464.056ZM163.195 453.746L169.002 458.492L177.428 448.181L171.621 443.435L165.814 438.689L157.388 449L163.195 453.746ZM177.237 436.559L181.954 430.728L167.956 419.403L163.239 425.234L158.521 431.065L172.52 442.389L177.237 436.559ZM163.239 425.234L167.956 419.403L153.958 408.078L149.24 413.909L144.523 419.74L158.521 431.065L163.239 425.234ZM194.089 415.938L188.282 411.192L179.856 421.502L185.663 426.248L191.47 430.994L199.896 420.684L194.089 415.938ZM185.663 426.248L179.856 421.502L171.429 431.813L177.237 436.559L183.044 441.305L191.47 430.994L185.663 426.248ZM132.301 491.554L137.027 485.73L122.999 474.346L118.273 480.17L113.547 485.994L127.575 497.377L132.301 491.554ZM118.273 480.17L122.999 474.346L108.972 462.962L104.246 468.786L99.5196 474.61L113.547 485.994L118.273 480.17ZM132.301 491.554L138.108 496.3L146.534 485.989L140.727 481.243L134.92 476.497L126.493 486.808L132.301 491.554ZM140.727 481.243L146.534 485.989L154.96 475.679L149.153 470.933L143.346 466.187L134.92 476.497L140.727 481.243ZM109.833 519.051L114.563 513.231L100.521 501.818L95.7906 507.638L91.0601 513.458L105.102 524.871L109.833 519.051ZM95.7906 507.638L100.521 501.818L86.4788 490.404L81.7483 496.224L77.0178 502.044L91.0601 513.458L95.7906 507.638ZM126.685 498.431L120.878 493.685L112.452 503.995L118.259 508.741L124.066 513.487L132.492 503.177L126.685 498.431ZM118.259 508.741L112.452 503.995L104.025 514.305L109.833 519.051L115.64 523.797L124.066 513.487L118.259 508.741ZM147.28 549.491L152.011 543.671L137.969 532.257L133.238 538.077L128.508 543.897L142.55 555.311L147.28 549.491ZM133.238 538.077L137.969 532.257L123.926 520.844L119.196 526.664L114.465 532.484L128.508 543.897L133.238 538.077ZM164.103 528.811L158.285 524.078L149.874 534.418L155.692 539.151L161.51 543.884L169.921 533.544L164.103 528.811ZM155.692 539.151L149.874 534.418L141.462 544.758L147.28 549.491L153.098 554.224L161.51 543.884L155.692 539.151ZM141.654 499.146L136.928 504.97L150.956 516.354L155.682 510.53L160.408 504.707L146.38 493.323L141.654 499.146ZM155.682 510.53L150.956 516.354L164.983 527.738L169.709 521.914L174.435 516.091L160.408 504.707L155.682 510.53ZM155.682 510.53L153.759 517.78L167.787 521.499L169.709 514.25L171.631 507L157.604 503.281L155.682 510.53ZM169.709 521.914L175.527 526.647L183.939 516.307L178.121 511.574L172.303 506.841L163.891 517.181L169.709 521.914ZM178.121 511.574L183.939 516.307L192.35 505.967L186.532 501.234L180.714 496.501L172.303 506.841L178.121 511.574ZM169.709 514.25L171.983 521.397L180.394 518.721L178.121 511.574L175.847 504.427L167.436 507.103L169.709 514.25ZM178.125 482.983L175.584 490.04L188.523 494.7L191.064 487.643L193.605 480.587L180.667 475.927L178.125 482.983ZM191.064 487.643L193.755 494.644L203.24 490.999L200.55 483.998L197.859 476.997L188.373 480.642L191.064 487.643ZM200.569 455.436L197.954 462.466L211.952 467.673L214.567 460.643L217.182 453.614L203.183 448.407L200.569 455.436ZM214.567 460.643L217.931 467.346L226.343 463.124L222.978 456.421L219.614 449.718L211.203 453.94L214.567 460.643ZM237.899 485.639L234.98 492.548L248.978 498.462L251.897 491.554L254.816 484.645L240.818 478.731L237.899 485.639ZM251.897 491.554L255.711 498.012L264.108 493.052L260.294 486.594L256.48 480.137L248.083 485.096L251.897 491.554ZM275.229 515.842L272.366 522.774L285.201 528.075L288.064 521.143L290.927 514.211L278.092 508.91L275.229 515.842ZM288.064 521.143L291.189 527.961L300.735 523.585L297.609 516.767L294.484 509.95L284.939 514.326L288.064 521.143ZM170.686 568.516L168.445 575.674L180.323 579.393L182.564 572.236L184.805 565.079L172.927 561.359L170.686 568.516ZM182.564 572.236L184.406 579.506L194.967 576.831L193.125 569.56L191.283 562.29L180.722 564.966L182.564 572.236ZM133.238 538.077L131.014 545.24L143.34 549.068L145.564 541.905L147.788 534.743L135.463 530.915L133.238 538.077ZM145.564 541.905L147.532 549.142L157.66 546.388L155.692 539.151L153.724 531.914L143.596 534.668L145.564 541.905ZM95.7906 507.638L92.767 514.501L105.54 520.128L108.564 513.265L111.588 506.401L98.8141 500.774L95.7906 507.638ZM108.564 513.265L111.735 520.061L121.43 515.538L118.259 508.741L115.088 501.945L105.393 506.468L108.564 513.265ZM118.273 480.17L116.043 487.331L128.334 491.159L130.564 483.998L132.794 476.837L120.503 473.009L118.273 480.17ZM130.564 483.998L132.526 491.237L142.689 488.482L140.727 481.243L138.765 474.005L128.602 476.759L130.564 483.998ZM140.756 452.702L138.041 459.693L152.054 465.135L154.769 458.143L157.484 451.152L143.471 445.71L140.756 452.702ZM154.769 458.143L158.239 464.792L166.665 460.395L163.195 453.746L159.725 447.097L151.299 451.494L154.769 458.143ZM163.239 425.234L160.985 432.387L174.983 436.797L177.237 429.643L179.49 422.49L165.492 418.08L163.239 425.234ZM177.237 429.643L180.04 436.6L188.466 433.205L185.663 426.248L182.86 419.292L174.434 422.687L177.237 429.643ZM273.064 242.781L278.884 247.512L342.394 169.374L336.574 164.643L330.754 159.913L267.244 238.051L273.064 242.781ZM336.574 164.643L331.939 170.54L373.93 203.54L378.564 197.643L383.198 191.746L341.208 158.746L336.574 164.643ZM378.564 197.643L381.104 190.586L343.594 177.086L341.054 184.143L338.514 191.2L376.024 204.7L378.564 197.643ZM341.054 184.143L336.267 178.369L302.184 206.625L306.97 212.399L311.757 218.173L345.841 189.917L341.054 184.143ZM306.97 212.399L301.965 206.814L268.059 237.196L273.064 242.781L278.069 248.367L311.975 217.985L306.97 212.399ZM241.081 674.486L242.636 689.405L248.818 688.761L252.732 683.933L241.081 674.486ZM17.767 512.587L2.84818 514.146L3.49333 520.322L8.31492 524.235L17.767 512.587ZM336.629 95.6433L346.156 84.0569L334.523 74.4921L325.005 86.1632L336.629 95.6433ZM562.13 278.643L573.754 288.123L583.215 276.522L571.633 267.038L562.13 278.643ZM530.38 252.643L518.231 243.844L509.939 255.293L520.876 264.249L530.38 252.643ZM685.38 38.6433L697.528 47.4422L706.111 35.5922L694.478 26.7174L685.38 38.6433ZM661.13 20.1433L670.228 8.21744L659.456 -4.19837e-07L650.188 9.88227L661.13 20.1433ZM480.129 213.143L470.621 224.745L481.473 233.638L491.071 223.404L480.129 213.143ZM413.629 158.643L400.606 151.201L394.316 162.209L404.121 170.245L413.629 158.643ZM435.629 120.143L448.653 127.585L454.973 116.526L445.083 108.497L435.629 120.143ZM393.129 85.6433L402.583 73.9974L392.976 66.1989L383.493 74.1477L393.129 85.6433ZM359.129 114.143L349.603 125.73L359.222 133.639L368.765 125.639L359.129 114.143ZM253.63 197.643L265.285 207.086L274.275 195.988L263.631 186.465L253.63 197.643ZM294.629 147.143L285.259 158.856L296.862 168.139L306.254 156.623L294.629 147.143ZM480.129 379.643L490.736 369.037L478.963 357.264L468.478 370.197L480.129 379.643ZM520.129 330.143L508.505 320.663L499.07 332.232L510.594 341.722L520.129 330.143ZM487.129 386.643L476.523 397.25L488.103 408.83L498.624 396.28L487.129 386.643ZM528.63 337.143L540.124 346.78L549.846 335.184L538.165 325.564L528.63 337.143ZM244.13 189.143L232.474 179.702L223.485 190.799L234.128 200.322L244.13 189.143ZM284.629 139.143L294 127.43L282.358 118.116L272.974 129.702L284.629 139.143ZM525.379 164.893L514.438 154.632L514.438 154.632L525.379 164.893ZM219.977 676.687L210.525 688.334L215.351 692.251L221.533 691.606L219.977 676.687ZM15.564 491.498L3.90885 482.056L-2.45396e-06 486.88L0.645142 493.056L15.564 491.498ZM134.597 344.571L131.094 329.985L126.145 331.174L122.942 335.128L134.597 344.571ZM360.605 527.065L372.257 536.512L375.462 532.558L375.6 527.471L360.605 527.065ZM420.367 453.354L423.892 467.934L428.824 466.742L432.019 462.801L420.367 453.354ZM194.113 271.107L182.458 261.665L179.246 265.63L179.118 270.731L194.113 271.107ZM163.609 337.603L167.112 352.188L172.06 351L175.264 347.045L163.609 337.603ZM361.412 497.239L349.761 487.792L346.556 491.745L346.418 496.833L361.412 497.239ZM391.293 460.384L387.768 445.804L382.837 446.996L379.642 450.937L391.293 460.384ZM193.367 300.871L205.022 310.313L208.235 306.348L208.363 301.247L193.367 300.871ZM503.95 286.143L513.385 274.482L513.385 274.482L503.95 286.143ZM530.38 252.643L520.876 264.249L552.626 290.249L562.13 278.643L571.633 267.038L539.883 241.038L530.38 252.643ZM413.629 158.643L404.121 170.245L470.621 224.745L480.129 213.143L489.638 201.542L423.138 147.042L413.629 158.643ZM413.629 158.643L426.653 166.085L448.653 127.585L435.629 120.143L422.606 112.701L400.606 151.201L413.629 158.643ZM435.629 120.143L445.083 108.497L402.583 73.9974L393.129 85.6433L383.676 97.2892L426.176 131.789L435.629 120.143ZM336.629 95.6433L327.103 107.23L349.603 125.73L359.129 114.143L368.656 102.557L346.156 84.0569L336.629 95.6433ZM393.129 85.6433L383.493 74.1477L349.493 102.648L359.129 114.143L368.765 125.639L402.765 97.1388L393.129 85.6433ZM294.629 147.143L306.254 156.623L348.254 105.123L336.629 95.6433L325.005 86.1632L283.005 137.663L294.629 147.143ZM562.13 278.643L550.505 269.163L508.505 320.663L520.129 330.143L531.754 339.623L573.754 288.123L562.13 278.643ZM487.129 386.643L497.736 376.037L490.736 369.037L480.129 379.643L469.523 390.25L476.523 397.25L487.129 386.643ZM520.129 330.143L510.594 341.722L519.094 348.722L528.63 337.143L538.165 325.564L529.665 318.564L520.129 330.143ZM528.63 337.143L517.135 327.506L475.635 377.006L487.129 386.643L498.624 396.28L540.124 346.78L528.63 337.143ZM253.63 197.643L263.631 186.465L254.131 177.965L244.13 189.143L234.128 200.322L243.628 208.822L253.63 197.643ZM244.13 189.143L255.785 198.585L296.285 148.585L284.629 139.143L272.974 129.702L232.474 179.702L244.13 189.143ZM284.629 139.143L275.259 150.856L285.259 158.856L294.629 147.143L304 135.43L294 127.43L284.629 139.143ZM525.379 164.893L514.438 154.632L491.813 178.757L502.754 189.018L513.696 199.279L536.321 175.154L525.379 164.893ZM502.754 189.018L491.813 178.757L469.188 202.882L480.129 213.143L491.071 223.404L513.696 199.279L502.754 189.018ZM530.38 252.643L542.528 261.442L561.903 234.692L549.755 225.893L537.606 217.094L518.231 243.844L530.38 252.643ZM549.755 225.893L561.903 234.692L581.278 207.942L569.13 199.143L556.981 190.344L537.606 217.094L549.755 225.893ZM17.767 512.587L32.6858 511.029L30.4828 489.939L15.564 491.498L0.645142 493.056L2.84818 514.146L17.767 512.587ZM241.081 674.486L239.525 659.567L218.421 661.768L219.977 676.687L221.533 691.606L242.636 689.405L241.081 674.486ZM480.129 379.643L468.478 370.197L408.716 443.907L420.367 453.354L432.019 462.801L491.781 389.09L480.129 379.643ZM361.412 497.239L346.418 496.833L345.611 526.659L360.605 527.065L375.6 527.471L376.407 497.645L361.412 497.239ZM420.367 453.354L416.842 438.774L387.768 445.804L391.293 460.384L394.819 474.963L423.892 467.934L420.367 453.354ZM391.293 460.384L379.642 450.937L349.761 487.792L361.412 497.239L373.064 506.686L402.945 469.83L391.293 460.384ZM163.609 337.603L175.264 347.045L205.022 310.313L193.367 300.871L181.712 291.429L151.954 328.16L163.609 337.603ZM193.367 300.871L208.363 301.247L209.108 271.483L194.113 271.107L179.118 270.731L178.372 300.495L193.367 300.871ZM134.597 344.571L138.1 359.156L167.112 352.188L163.609 337.603L160.106 323.018L131.094 329.985L134.597 344.571ZM219.977 676.687L229.429 665.04L27.2191 500.94L17.767 512.587L8.31492 524.235L210.525 688.334L219.977 676.687ZM15.564 491.498L27.2191 500.94L146.252 354.013L134.597 344.571L122.942 335.128L3.90885 482.056L15.564 491.498ZM360.605 527.065L348.953 517.618L229.429 665.04L241.081 674.486L252.732 683.933L372.257 536.512L360.605 527.065ZM661.13 20.1433L650.188 9.88227L514.438 154.632L525.379 164.893L536.321 175.154L672.071 30.4043L661.13 20.1433ZM569.13 199.143L581.278 207.942L697.528 47.4422L685.38 38.6433L673.231 29.8443L556.981 190.344L569.13 199.143ZM334.629 149.143L325.194 160.804L500.694 302.804L510.129 291.143L519.565 279.482L344.065 137.482L334.629 149.143ZM194.113 271.107L205.768 280.549L235.526 243.817L223.871 234.375L212.216 224.933L182.458 261.665L194.113 271.107ZM223.871 234.375L235.526 243.817L265.285 207.086L253.63 197.643L241.974 188.201L212.216 224.933L223.871 234.375ZM510.129 291.143L519.565 279.482L513.385 274.482L503.95 286.143L494.515 297.804L500.694 302.804L510.129 291.143ZM685.38 38.6433L694.478 26.7174L682.353 17.4674L673.255 29.3933L664.156 41.3191L676.281 50.5691L685.38 38.6433ZM334.629 149.143L325.194 160.804L494.515 297.804L503.95 286.143L513.385 274.482L344.065 137.482L334.629 149.143ZM673.255 29.3933L682.353 17.4674L676.29 12.8424L667.192 24.7683L658.094 36.6941L664.156 41.3191L673.255 29.3933ZM667.192 24.7683L676.29 12.8424L670.228 8.21744L661.13 20.1433L652.031 32.0691L658.094 36.6941L667.192 24.7683Z" fill="#65F0BD" mask="url(#path-1-outside-1_4_37)"/>
</svg>
