<svg width="842" height="842" viewBox="0 0 842 842" fill="none" xmlns="http://www.w3.org/2000/svg">
<path d="M0 310.4C0 201.75 0 147.425 21.1447 105.926C39.7442 69.4224 69.4224 39.7442 105.926 21.1447C147.425 0 201.75 0 310.4 0H531.6C640.25 0 694.575 0 736.074 21.1447C772.578 39.7442 802.256 69.4224 820.855 105.926C842 147.425 842 201.75 842 310.4V531.6C842 640.25 842 694.575 820.855 736.074C802.256 772.578 772.578 802.256 736.074 820.855C694.575 842 640.25 842 531.6 842H310.4C201.75 842 147.425 842 105.926 820.855C69.4224 802.256 39.7442 772.578 21.1447 736.074C0 694.575 0 640.25 0 531.6V310.4Z" fill="url(#paint0_radial_2_15)"/>
<mask id="path-2-outside-1_2_15" maskUnits="userSpaceOnUse" x="65.5" y="68" width="707" height="694" fill="black">
<rect fill="white" x="65.5" y="68" width="707" height="694"/>
<path d="M628.066 347.5L596.316 321.5L569.886 355L576.066 360L499.066 453.5L495.799 450.825L476.91 475.127L433.275 479.497L260.049 339.964L259.303 369.728L274.897 382.295L457.23 529.24L486.303 522.211L546.066 448.5L553.066 455.5L594.566 406L586.066 399L628.066 347.5Z"/>
<path d="M425.065 183L402.566 164.5L360.566 216L350.566 208L310.066 258L319.566 266.5L289.807 303.232L425.065 183Z"/>
<path d="M229.545 406.46L200.533 413.427L81.5 560.355L229.545 406.46Z"/>
<path d="M259.303 369.728L229.545 406.46L252.221 394.377L457.23 529.24L274.897 382.295L259.303 369.728Z"/>
<path d="M635.066 268L751.316 107.5L739.191 98.25L634.021 262.583L635.066 268Z"/>
<path d="M81.5 560.355L83.703 581.444L285.913 745.544L307.017 743.343L426.541 595.922L427.348 566.096L307.017 717.5L278.827 720.469L81.5 560.355Z"/>
<path fill-rule="evenodd" clip-rule="evenodd" d="M276.811 635.64L260.027 656.399L274.069 667.812L288.112 671L296.494 668.827L304.876 658.428L276.811 635.64Z"/>
<path d="M274.069 667.812L288.112 679.226L296.494 668.827L288.112 671L274.069 667.812Z"/>
<path fill-rule="evenodd" clip-rule="evenodd" d="M299.191 607.965L282.407 628.724L296.435 640.108L310.462 642L318.844 641.093L327.226 630.693L299.191 607.965Z"/>
<path fill-rule="evenodd" clip-rule="evenodd" d="M318.8 612.403L304.787 601.049L321.571 580.29L349.577 602.959L341.195 613.358L332.813 615.5L318.8 612.403Z"/>
<path d="M296.435 640.108L310.462 651.492L318.844 641.093L310.462 642L296.435 640.108Z"/>
<path d="M318.8 612.403L332.813 623.758L341.195 613.358L332.813 615.5L318.8 612.403Z"/>
<path d="M727.066 89L591.316 233.75H593.979L733.128 93.625L727.066 89Z"/>
<path d="M591.316 233.75L568.691 257.875L570.127 257.769L593.979 233.75H591.316Z"/>
<path d="M568.691 257.875L546.066 282L570.127 257.769L568.691 257.875Z"/>
<path d="M615.691 294.75L635.066 268L634.021 262.583L615.135 292.093L615.691 294.75Z"/>
<path d="M596.316 321.5L615.691 294.75L615.135 292.093L596.316 321.5Z"/>
<path d="M634.021 262.583L630.75 245.625L610.375 269.312L615.135 292.093L634.021 262.583Z"/>
<path fill-rule="evenodd" clip-rule="evenodd" d="M229.545 406.46L81.5 560.355L278.827 720.469L307.017 717.5L427.348 566.096L457.23 529.24L252.221 394.377L229.545 406.46ZM596.316 321.5L569.886 355L400.566 218L325.066 311L495.799 450.825L476.91 475.127L433.275 479.497L260.049 339.964L289.807 303.232L425.065 183L459.065 154.5L501.565 189L479.566 227.5L546.066 282L570.127 257.769L592.5 256.125L610.375 269.312L615.135 292.093L596.316 321.5ZM630.75 245.625L739.191 98.25L733.128 93.625L593.979 233.75H614.5L630.75 245.625ZM327.167 573.374L343.951 552.615L371.928 575.225L363.546 585.624L355.163 596.023L341.165 584.698L327.167 573.374ZM306.65 522.471L334.627 545.082L326.23 555.451L317.833 565.821L303.835 554.496L289.837 543.171L306.65 522.471ZM260.027 656.399L276.811 635.64L304.876 658.428L296.494 668.827L288.112 679.226L274.069 667.812L260.027 656.399ZM239.393 605.26L222.58 625.96L236.622 637.373L250.664 648.787L259.061 638.417L267.458 628.048L239.393 605.26ZM201.974 574.88L230.039 597.668L221.628 608.007L213.216 618.347L199.174 606.934L185.132 595.52L201.974 574.88ZM175.769 587.908L184.195 577.598L192.621 567.287L164.556 544.5L147.684 565.081L161.727 576.495L175.769 587.908ZM198.237 560.411L206.663 550.1L215.089 539.79L187.053 517.061L170.182 537.643L184.209 549.027L198.237 560.411ZM332.813 623.758L318.8 612.403L304.787 601.049L321.571 580.29L349.577 602.959L341.195 613.358L332.813 623.758ZM282.407 628.724L299.191 607.965L327.226 630.693L318.844 641.093L310.462 651.492L296.435 640.108L282.407 628.724ZM267.418 570.767L281.431 582.122L295.444 593.476L303.84 583.106L312.237 572.737L284.231 550.068L267.418 570.767ZM273.054 621.131L281.451 610.762L289.847 600.392L261.812 577.664L244.999 598.363L259.026 609.747L273.054 621.131ZM274.897 542.515L266.486 552.854L258.074 563.194L244.061 551.84L230.048 540.486L246.891 519.845L274.897 542.515ZM235.645 590.771L244.057 580.431L252.468 570.091L224.433 547.363L207.59 568.003L221.618 579.387L235.645 590.771ZM269.349 492.328L297.326 514.938L288.914 525.278L280.503 535.618L266.505 524.293L252.507 512.968L269.349 492.328ZM215.176 482.766L232.048 462.184L260.025 484.795L251.599 495.105L243.173 505.415L229.175 494.091L215.176 482.766ZM237.557 512.292L229.131 522.603L220.705 532.913L206.692 521.559L192.679 510.204L209.551 489.623L237.557 512.292Z"/>
<path d="M630.75 245.625L634.021 262.583L739.191 98.25L630.75 245.625Z"/>
<path d="M592.5 256.125L610.375 269.312L630.75 245.625L614.5 233.75H593.979L570.127 257.769L592.5 256.125Z"/>
<path fill-rule="evenodd" clip-rule="evenodd" d="M239.393 605.26L222.58 625.96L236.622 637.373L248.5 641.093L259.061 638.417L267.458 628.048L239.393 605.26Z"/>
<path fill-rule="evenodd" clip-rule="evenodd" d="M289.847 600.392L281.451 610.762L259.026 609.747L244.999 598.363L261.812 577.664L289.847 600.392Z"/>
<path fill-rule="evenodd" clip-rule="evenodd" d="M267.418 570.767L281.431 582.122L303.84 583.106L312.237 572.737L284.231 550.068L267.418 570.767Z"/>
<path fill-rule="evenodd" clip-rule="evenodd" d="M306.65 522.471L334.627 545.082L326.23 555.451L317.833 560.411L303.835 554.496L289.837 543.171L306.65 522.471Z"/>
<path fill-rule="evenodd" clip-rule="evenodd" d="M269.349 492.328L297.326 514.938L288.914 525.278L280.503 529.5L266.505 524.293L252.507 512.968L269.349 492.328Z"/>
<path fill-rule="evenodd" clip-rule="evenodd" d="M274.897 542.515L266.486 552.854L257 556.5L244.061 551.84L230.048 540.486L246.891 519.845L274.897 542.515Z"/>
<path fill-rule="evenodd" clip-rule="evenodd" d="M230.039 597.668L201.974 574.88L185.132 595.52L199.174 606.934L211.5 610.762L221.628 608.007L230.039 597.668Z"/>
<path fill-rule="evenodd" clip-rule="evenodd" d="M184.195 577.598L192.621 567.287L164.556 544.5L147.684 565.081L161.727 576.495L174.5 582.122L184.195 577.598Z"/>
<path fill-rule="evenodd" clip-rule="evenodd" d="M215.089 539.79L206.663 550.1L196.5 552.854L184.209 549.027L170.182 537.643L187.053 517.061L215.089 539.79Z"/>
<path fill-rule="evenodd" clip-rule="evenodd" d="M237.557 512.292L229.131 522.603L220.705 527L206.692 521.559L192.679 510.204L209.551 489.623L237.557 512.292Z"/>
<path fill-rule="evenodd" clip-rule="evenodd" d="M232.048 462.184L215.176 482.766L229.175 494.091L243.173 498.5L251.599 495.105L260.025 484.795L232.048 462.184Z"/>
<path d="M236.622 637.373L250.664 648.787L259.061 638.417L248.5 641.093L236.622 637.373Z"/>
<path d="M259.026 609.747L273.054 621.131L281.451 610.762L259.026 609.747Z"/>
<path d="M281.431 582.122L295.444 593.476L303.84 583.106L281.431 582.122Z"/>
<path d="M303.835 554.496L317.833 565.821L326.23 555.451L317.833 560.411L303.835 554.496Z"/>
<path d="M266.505 524.293L280.503 535.618L288.914 525.278L280.503 529.5L266.505 524.293Z"/>
<path d="M244.061 551.84L258.074 563.194L266.486 552.854L257 556.5L244.061 551.84Z"/>
<path d="M199.174 606.934L213.216 618.347L221.628 608.007L211.5 610.762L199.174 606.934Z"/>
<path d="M161.727 576.495L175.769 587.908L184.195 577.598L174.5 582.122L161.727 576.495Z"/>
<path d="M184.209 549.027L198.237 560.411L206.663 550.1L196.5 552.854L184.209 549.027Z"/>
<path d="M206.692 521.559L220.705 532.913L229.131 522.603L220.705 527L206.692 521.559Z"/>
<path d="M229.175 494.091L243.173 505.415L251.599 495.105L243.173 498.5L229.175 494.091Z"/>
<path fill-rule="evenodd" clip-rule="evenodd" d="M343.951 552.615L327.167 573.374L341.165 584.698L354 590L363.546 585.624L371.928 575.225L343.951 552.615Z"/>
<path d="M341.165 584.698L355.163 596.023L363.546 585.624L354 590L341.165 584.698Z"/>
<path fill-rule="evenodd" clip-rule="evenodd" d="M252.468 570.091L244.057 580.431L235.645 583.106L221.618 579.387L207.59 568.003L224.433 547.363L252.468 570.091Z"/>
<path d="M221.618 579.387L235.645 590.771L244.057 580.431L235.645 583.106L221.618 579.387Z"/>
<path d="M402.51 233.5L339 311.638L372.906 281.256L406.99 253L444.5 266.5L402.51 233.5Z"/>
<path fill-rule="evenodd" clip-rule="evenodd" d="M576.066 360L400.566 218L325.066 311L495.799 450.825L499.066 453.5L576.066 360ZM339 311.638L402.51 233.5L444.5 266.5L406.99 253L372.906 281.256L339 311.638ZM372.906 281.256L352.356 306.597L356.526 309.979L353.181 314.104L357.764 317.82L361.109 313.695L365.324 317.114L372.088 308.774L375.754 311.747L368.991 320.087L373.207 323.506L369.862 327.63L374.49 331.384L377.835 327.259L381.959 330.604L402.51 305.262L397.927 301.546L377.748 326.43L374.036 323.419L380.8 315.079L376.584 311.66L386.618 299.287L382.035 295.571L372.001 307.944L367.785 304.525L361.022 312.866L357.356 309.893L377.535 285.009L372.906 281.256ZM390.601 344.449L410.743 319.611L407.077 316.638L403.732 320.762L399.104 317.009L402.82 312.426L406.99 315.808L410.372 311.638L423.295 322.118L419.913 326.288L424.129 329.707L420.413 334.289L415.738 330.499L419.083 326.374L415.417 323.402L395.275 348.239L390.601 344.449Z"/>
<path d="M390.601 344.449L410.743 319.611L407.077 316.638L403.732 320.762L399.104 317.009L402.82 312.426L406.99 315.808L410.372 311.638L423.295 322.118L419.913 326.288L424.129 329.707L420.413 334.289L415.738 330.499L419.083 326.374L415.417 323.402L395.275 348.239L390.601 344.449Z"/>
<path d="M356.526 309.979L353.181 314.104L357.764 317.82L361.109 313.695L365.324 317.114L372.088 308.774L375.754 311.747L368.991 320.087L373.207 323.506L369.862 327.63L374.49 331.384L377.835 327.259L381.959 330.604L402.51 305.262L397.927 301.546L377.748 326.43L374.036 323.419L380.8 315.079L376.584 311.66L386.618 299.287L382.035 295.571L372.001 307.944L367.785 304.525L361.022 312.866L357.356 309.893L377.535 285.009L372.906 281.256L352.356 306.597L356.526 309.979Z"/>
</mask>
<path d="M628.066 347.5L596.316 321.5L569.886 355L576.066 360L499.066 453.5L495.799 450.825L476.91 475.127L433.275 479.497L260.049 339.964L259.303 369.728L274.897 382.295L457.23 529.24L486.303 522.211L546.066 448.5L553.066 455.5L594.566 406L586.066 399L628.066 347.5Z" fill="#0C3B68"/>
<path d="M425.065 183L402.566 164.5L360.566 216L350.566 208L310.066 258L319.566 266.5L289.807 303.232L425.065 183Z" fill="#1E5384"/>
<path d="M229.545 406.46L200.533 413.427L81.5 560.355L229.545 406.46Z" fill="#1E5384"/>
<path d="M259.303 369.728L229.545 406.46L252.221 394.377L457.23 529.24L274.897 382.295L259.303 369.728Z" fill="#1E5384"/>
<path d="M635.066 268L751.316 107.5L739.191 98.25L634.021 262.583L635.066 268Z" fill="#0C3B68"/>
<path d="M81.5 560.355L83.703 581.444L285.913 745.544L307.017 743.343L426.541 595.922L427.348 566.096L307.017 717.5L278.827 720.469L81.5 560.355Z" fill="#0C3B68"/>
<path fill-rule="evenodd" clip-rule="evenodd" d="M276.811 635.64L260.027 656.399L274.069 667.812L288.112 671L296.494 668.827L304.876 658.428L276.811 635.64Z" fill="#65C4D8"/>
<path d="M274.069 667.812L288.112 679.226L296.494 668.827L288.112 671L274.069 667.812Z" fill="#4CAABE"/>
<path fill-rule="evenodd" clip-rule="evenodd" d="M299.191 607.965L282.407 628.724L296.435 640.108L310.462 642L318.844 641.093L327.226 630.693L299.191 607.965Z" fill="#65C4D8"/>
<path fill-rule="evenodd" clip-rule="evenodd" d="M318.8 612.403L304.787 601.049L321.571 580.29L349.577 602.959L341.195 613.358L332.813 615.5L318.8 612.403Z" fill="#65C4D8"/>
<path d="M296.435 640.108L310.462 651.492L318.844 641.093L310.462 642L296.435 640.108Z" fill="#4CAABE"/>
<path d="M318.8 612.403L332.813 623.758L341.195 613.358L332.813 615.5L318.8 612.403Z" fill="#4CAABE"/>
<path d="M727.066 89L591.316 233.75H593.979L733.128 93.625L727.066 89Z" fill="#1E5384"/>
<path d="M591.316 233.75L568.691 257.875L570.127 257.769L593.979 233.75H591.316Z" fill="#4F8BC4"/>
<path d="M568.691 257.875L546.066 282L570.127 257.769L568.691 257.875Z" fill="#1E5384"/>
<path d="M615.691 294.75L635.066 268L634.021 262.583L615.135 292.093L615.691 294.75Z" fill="#1D4F7E"/>
<path d="M596.316 321.5L615.691 294.75L615.135 292.093L596.316 321.5Z" fill="#0C3B68"/>
<path d="M634.021 262.583L630.75 245.625L610.375 269.312L615.135 292.093L634.021 262.583Z" fill="#295F93"/>
<path fill-rule="evenodd" clip-rule="evenodd" d="M229.545 406.46L81.5 560.355L278.827 720.469L307.017 717.5L427.348 566.096L457.23 529.24L252.221 394.377L229.545 406.46ZM596.316 321.5L569.886 355L400.566 218L325.066 311L495.799 450.825L476.91 475.127L433.275 479.497L260.049 339.964L289.807 303.232L425.065 183L459.065 154.5L501.565 189L479.566 227.5L546.066 282L570.127 257.769L592.5 256.125L610.375 269.312L615.135 292.093L596.316 321.5ZM630.75 245.625L739.191 98.25L733.128 93.625L593.979 233.75H614.5L630.75 245.625ZM327.167 573.374L343.951 552.615L371.928 575.225L363.546 585.624L355.163 596.023L341.165 584.698L327.167 573.374ZM306.65 522.471L334.627 545.082L326.23 555.451L317.833 565.821L303.835 554.496L289.837 543.171L306.65 522.471ZM260.027 656.399L276.811 635.64L304.876 658.428L296.494 668.827L288.112 679.226L274.069 667.812L260.027 656.399ZM239.393 605.26L222.58 625.96L236.622 637.373L250.664 648.787L259.061 638.417L267.458 628.048L239.393 605.26ZM201.974 574.88L230.039 597.668L221.628 608.007L213.216 618.347L199.174 606.934L185.132 595.52L201.974 574.88ZM175.769 587.908L184.195 577.598L192.621 567.287L164.556 544.5L147.684 565.081L161.727 576.495L175.769 587.908ZM198.237 560.411L206.663 550.1L215.089 539.79L187.053 517.061L170.182 537.643L184.209 549.027L198.237 560.411ZM332.813 623.758L318.8 612.403L304.787 601.049L321.571 580.29L349.577 602.959L341.195 613.358L332.813 623.758ZM282.407 628.724L299.191 607.965L327.226 630.693L318.844 641.093L310.462 651.492L296.435 640.108L282.407 628.724ZM267.418 570.767L281.431 582.122L295.444 593.476L303.84 583.106L312.237 572.737L284.231 550.068L267.418 570.767ZM273.054 621.131L281.451 610.762L289.847 600.392L261.812 577.664L244.999 598.363L259.026 609.747L273.054 621.131ZM274.897 542.515L266.486 552.854L258.074 563.194L244.061 551.84L230.048 540.486L246.891 519.845L274.897 542.515ZM235.645 590.771L244.057 580.431L252.468 570.091L224.433 547.363L207.59 568.003L221.618 579.387L235.645 590.771ZM269.349 492.328L297.326 514.938L288.914 525.278L280.503 535.618L266.505 524.293L252.507 512.968L269.349 492.328ZM215.176 482.766L232.048 462.184L260.025 484.795L251.599 495.105L243.173 505.415L229.175 494.091L215.176 482.766ZM237.557 512.292L229.131 522.603L220.705 532.913L206.692 521.559L192.679 510.204L209.551 489.623L237.557 512.292Z" fill="#0E4578"/>
<path d="M630.75 245.625L634.021 262.583L739.191 98.25L630.75 245.625Z" fill="#0D4173"/>
<path d="M592.5 256.125L610.375 269.312L630.75 245.625L614.5 233.75H593.979L570.127 257.769L592.5 256.125Z" fill="#326697"/>
<path fill-rule="evenodd" clip-rule="evenodd" d="M239.393 605.26L222.58 625.96L236.622 637.373L248.5 641.093L259.061 638.417L267.458 628.048L239.393 605.26Z" fill="#65C4D8"/>
<path fill-rule="evenodd" clip-rule="evenodd" d="M289.847 600.392L281.451 610.762L259.026 609.747L244.999 598.363L261.812 577.664L289.847 600.392Z" fill="#65C4D8"/>
<path fill-rule="evenodd" clip-rule="evenodd" d="M267.418 570.767L281.431 582.122L303.84 583.106L312.237 572.737L284.231 550.068L267.418 570.767Z" fill="#65C4D8"/>
<path fill-rule="evenodd" clip-rule="evenodd" d="M306.65 522.471L334.627 545.082L326.23 555.451L317.833 560.411L303.835 554.496L289.837 543.171L306.65 522.471Z" fill="#65C4D8"/>
<path fill-rule="evenodd" clip-rule="evenodd" d="M269.349 492.328L297.326 514.938L288.914 525.278L280.503 529.5L266.505 524.293L252.507 512.968L269.349 492.328Z" fill="#65C4D8"/>
<path fill-rule="evenodd" clip-rule="evenodd" d="M274.897 542.515L266.486 552.854L257 556.5L244.061 551.84L230.048 540.486L246.891 519.845L274.897 542.515Z" fill="#65C4D8"/>
<path fill-rule="evenodd" clip-rule="evenodd" d="M230.039 597.668L201.974 574.88L185.132 595.52L199.174 606.934L211.5 610.762L221.628 608.007L230.039 597.668Z" fill="#65C4D8"/>
<path fill-rule="evenodd" clip-rule="evenodd" d="M184.195 577.598L192.621 567.287L164.556 544.5L147.684 565.081L161.727 576.495L174.5 582.122L184.195 577.598Z" fill="#65C4D8"/>
<path fill-rule="evenodd" clip-rule="evenodd" d="M215.089 539.79L206.663 550.1L196.5 552.854L184.209 549.027L170.182 537.643L187.053 517.061L215.089 539.79Z" fill="#65C4D8"/>
<path fill-rule="evenodd" clip-rule="evenodd" d="M237.557 512.292L229.131 522.603L220.705 527L206.692 521.559L192.679 510.204L209.551 489.623L237.557 512.292Z" fill="#65C4D8"/>
<path fill-rule="evenodd" clip-rule="evenodd" d="M232.048 462.184L215.176 482.766L229.175 494.091L243.173 498.5L251.599 495.105L260.025 484.795L232.048 462.184Z" fill="#65C4D8"/>
<path d="M236.622 637.373L250.664 648.787L259.061 638.417L248.5 641.093L236.622 637.373Z" fill="#4CAABE"/>
<path d="M259.026 609.747L273.054 621.131L281.451 610.762L259.026 609.747Z" fill="#4CAABE"/>
<path d="M281.431 582.122L295.444 593.476L303.84 583.106L281.431 582.122Z" fill="#4CAABE"/>
<path d="M303.835 554.496L317.833 565.821L326.23 555.451L317.833 560.411L303.835 554.496Z" fill="#4CAABE"/>
<path d="M266.505 524.293L280.503 535.618L288.914 525.278L280.503 529.5L266.505 524.293Z" fill="#4CAABE"/>
<path d="M244.061 551.84L258.074 563.194L266.486 552.854L257 556.5L244.061 551.84Z" fill="#4CAABE"/>
<path d="M199.174 606.934L213.216 618.347L221.628 608.007L211.5 610.762L199.174 606.934Z" fill="#4CAABE"/>
<path d="M161.727 576.495L175.769 587.908L184.195 577.598L174.5 582.122L161.727 576.495Z" fill="#4CAABE"/>
<path d="M184.209 549.027L198.237 560.411L206.663 550.1L196.5 552.854L184.209 549.027Z" fill="#4CAABE"/>
<path d="M206.692 521.559L220.705 532.913L229.131 522.603L220.705 527L206.692 521.559Z" fill="#4CAABE"/>
<path d="M229.175 494.091L243.173 505.415L251.599 495.105L243.173 498.5L229.175 494.091Z" fill="#4CAABE"/>
<path fill-rule="evenodd" clip-rule="evenodd" d="M343.951 552.615L327.167 573.374L341.165 584.698L354 590L363.546 585.624L371.928 575.225L343.951 552.615Z" fill="#65C4D8"/>
<path d="M341.165 584.698L355.163 596.023L363.546 585.624L354 590L341.165 584.698Z" fill="#4CAABE"/>
<path fill-rule="evenodd" clip-rule="evenodd" d="M252.468 570.091L244.057 580.431L235.645 583.106L221.618 579.387L207.59 568.003L224.433 547.363L252.468 570.091Z" fill="#65C4D8"/>
<path d="M221.618 579.387L235.645 590.771L244.057 580.431L235.645 583.106L221.618 579.387Z" fill="#4CAABE"/>
<path d="M402.51 233.5L339 311.638L372.906 281.256L406.99 253L444.5 266.5L402.51 233.5Z" fill="#3481C8"/>
<path fill-rule="evenodd" clip-rule="evenodd" d="M576.066 360L400.566 218L325.066 311L495.799 450.825L499.066 453.5L576.066 360ZM339 311.638L402.51 233.5L444.5 266.5L406.99 253L372.906 281.256L339 311.638ZM372.906 281.256L352.356 306.597L356.526 309.979L353.181 314.104L357.764 317.82L361.109 313.695L365.324 317.114L372.088 308.774L375.754 311.747L368.991 320.087L373.207 323.506L369.862 327.63L374.49 331.384L377.835 327.259L381.959 330.604L402.51 305.262L397.927 301.546L377.748 326.43L374.036 323.419L380.8 315.079L376.584 311.66L386.618 299.287L382.035 295.571L372.001 307.944L367.785 304.525L361.022 312.866L357.356 309.893L377.535 285.009L372.906 281.256ZM390.601 344.449L410.743 319.611L407.077 316.638L403.732 320.762L399.104 317.009L402.82 312.426L406.99 315.808L410.372 311.638L423.295 322.118L419.913 326.288L424.129 329.707L420.413 334.289L415.738 330.499L419.083 326.374L415.417 323.402L395.275 348.239L390.601 344.449Z" fill="#296EAD"/>
<path d="M390.601 344.449L410.743 319.611L407.077 316.638L403.732 320.762L399.104 317.009L402.82 312.426L406.99 315.808L410.372 311.638L423.295 322.118L419.913 326.288L424.129 329.707L420.413 334.289L415.738 330.499L419.083 326.374L415.417 323.402L395.275 348.239L390.601 344.449Z" fill="#65C4D8"/>
<path d="M356.526 309.979L353.181 314.104L357.764 317.82L361.109 313.695L365.324 317.114L372.088 308.774L375.754 311.747L368.991 320.087L373.207 323.506L369.862 327.63L374.49 331.384L377.835 327.259L381.959 330.604L402.51 305.262L397.927 301.546L377.748 326.43L374.036 323.419L380.8 315.079L376.584 311.66L386.618 299.287L382.035 295.571L372.001 307.944L367.785 304.525L361.022 312.866L357.356 309.893L377.535 285.009L372.906 281.256L352.356 306.597L356.526 309.979Z" fill="#65C4D8"/>
<path d="M596.316 321.5L602.204 326.145L602.299 326.024L602.39 325.899L596.316 321.5ZM635.066 268L641.14 272.399L643.045 269.769L642.43 266.58L635.066 268ZM592.5 256.125L596.953 250.09L594.719 248.442L591.95 248.645L592.5 256.125ZM614.5 233.75L618.925 227.695L616.948 226.25H614.5V233.75ZM499.066 453.5L494.313 459.302L500.1 464.042L504.855 458.268L499.066 453.5ZM325.066 311L319.243 306.273L314.536 312.071L320.314 316.802L325.066 311ZM81.5 560.355L76.095 555.155L70.4371 561.036L76.7743 566.179L81.5 560.355ZM229.545 406.46L226.018 399.841L224.966 400.401L224.14 401.26L229.545 406.46ZM457.23 529.24L453.108 535.506L461.936 523.401L457.23 529.24ZM306.65 522.471L311.364 516.638L305.545 511.936L300.828 517.743L306.65 522.471ZM334.627 545.082L340.455 549.801L345.18 543.967L339.341 539.248L334.627 545.082ZM269.349 492.328L274.063 486.495L268.257 481.803L263.538 487.586L269.349 492.328ZM297.326 514.938L303.144 519.671L307.892 513.834L302.04 509.105L297.326 514.938ZM353.181 314.104L347.356 309.38L342.632 315.205L348.457 319.929L353.181 314.104ZM356.526 309.979L362.351 314.703L367.075 308.878L361.25 304.154L356.526 309.979ZM352.356 306.597L346.531 301.873L341.807 307.699L347.632 312.423L352.356 306.597ZM372.906 281.256L368.12 275.482L368.009 275.574L367.901 275.67L372.906 281.256ZM377.535 285.009L383.36 289.733L388.084 283.908L382.259 279.184L377.535 285.009ZM357.356 309.893L351.531 305.169L346.807 310.994L352.632 315.718L357.356 309.893ZM361.022 312.866L356.298 318.691L362.123 323.415L366.847 317.589L361.022 312.866ZM367.785 304.525L372.509 298.7L366.684 293.976L361.96 299.801L367.785 304.525ZM372.001 307.944L367.277 313.769L373.103 318.493L377.827 312.668L372.001 307.944ZM382.035 295.571L386.759 289.746L380.934 285.022L376.21 290.847L382.035 295.571ZM386.618 299.287L392.443 304.011L397.167 298.186L391.342 293.462L386.618 299.287ZM376.584 311.66L370.759 306.936L366.035 312.762L371.86 317.486L376.584 311.66ZM380.8 315.079L386.625 319.803L391.349 313.978L385.524 309.254L380.8 315.079ZM374.036 323.419L368.211 318.696L363.487 324.521L369.312 329.245L374.036 323.419ZM377.748 326.43L373.024 332.255L378.85 336.979L383.574 331.154L377.748 326.43ZM397.927 301.546L402.651 295.721L396.826 290.997L392.102 296.822L397.927 301.546ZM402.51 305.262L408.335 309.986L413.059 304.161L407.234 299.437L402.51 305.262ZM381.959 330.604L377.235 336.429L383.061 341.153L387.784 335.328L381.959 330.604ZM377.835 327.259L382.559 321.434L376.734 316.71L372.01 322.536L377.835 327.259ZM374.49 331.384L369.766 337.209L375.592 341.933L380.316 336.108L374.49 331.384ZM369.862 327.63L364.037 322.906L359.313 328.732L365.138 333.456L369.862 327.63ZM373.207 323.506L379.032 328.23L383.756 322.405L377.93 317.681L373.207 323.506ZM368.991 320.087L363.165 315.363L358.441 321.189L364.267 325.913L368.991 320.087ZM375.754 311.747L381.579 316.471L386.303 310.646L380.478 305.922L375.754 311.747ZM372.088 308.774L376.812 302.949L370.987 298.225L366.263 304.05L372.088 308.774ZM365.324 317.114L360.601 322.94L366.426 327.664L371.15 321.838L365.324 317.114ZM361.109 313.695L365.832 307.87L360.007 303.146L355.283 308.971L361.109 313.695ZM357.764 317.82L353.04 323.645L358.865 328.369L363.589 322.544L357.764 317.82ZM390.601 344.449L384.776 339.725L380.052 345.55L385.877 350.274L390.601 344.449ZM410.743 319.611L416.568 324.335L421.292 318.51L415.467 313.786L410.743 319.611ZM407.077 316.638L411.801 310.813L405.975 306.089L401.251 311.914L407.077 316.638ZM403.732 320.762L399.008 326.588L404.833 331.312L409.557 325.486L403.732 320.762ZM399.104 317.009L393.278 312.285L388.554 318.11L394.38 322.834L399.104 317.009ZM402.82 312.426L407.544 306.601L401.718 301.877L396.995 307.702L402.82 312.426ZM406.99 315.808L402.266 321.633L408.091 326.357L412.815 320.532L406.99 315.808ZM410.372 311.638L415.096 305.813L409.27 301.089L404.546 306.914L410.372 311.638ZM423.295 322.118L429.12 326.842L433.844 321.016L428.019 316.292L423.295 322.118ZM419.913 326.288L414.088 321.564L409.364 327.389L415.189 332.113L419.913 326.288ZM424.129 329.707L429.954 334.431L434.678 328.605L428.853 323.881L424.129 329.707ZM420.413 334.289L415.689 340.115L421.514 344.839L426.238 339.013L420.413 334.289ZM415.738 330.499L409.913 325.775L405.189 331.6L411.014 336.324L415.738 330.499ZM419.083 326.374L424.908 331.098L429.632 325.273L423.807 320.549L419.083 326.374ZM415.417 323.402L420.141 317.576L414.316 312.852L409.592 318.678L415.417 323.402ZM395.275 348.239L390.551 354.064L396.376 358.788L401.1 352.963L395.275 348.239ZM282.407 628.724L276.575 624.008L271.868 629.83L277.681 634.547L282.407 628.724ZM299.191 607.965L303.914 602.139L298.08 597.41L293.359 603.25L299.191 607.965ZM310.462 651.492L305.736 657.315L311.579 662.057L316.302 656.198L310.462 651.492ZM327.226 630.693L333.066 635.4L337.759 629.577L331.95 624.867L327.226 630.693ZM273.054 621.131L268.328 626.955L274.158 631.686L278.882 625.851L273.054 621.131ZM289.847 600.392L295.676 605.112L300.393 599.287L294.57 594.566L289.847 600.392ZM304.787 601.049L298.955 596.333L294.244 602.159L300.065 606.876L304.787 601.049ZM332.813 623.758L328.091 629.585L333.933 634.318L338.652 628.464L332.813 623.758ZM349.577 602.959L355.416 607.666L360.113 601.839L354.296 597.13L349.577 602.959ZM321.571 580.29L326.289 574.46L320.457 569.739L315.739 575.575L321.571 580.29ZM295.444 593.476L290.722 599.303L296.551 604.026L301.272 598.196L295.444 593.476ZM267.418 570.767L261.596 566.039L256.862 571.867L262.696 576.594L267.418 570.767ZM312.237 572.737L318.066 577.457L322.786 571.627L316.956 566.907L312.237 572.737ZM284.231 550.068L288.949 544.238L283.13 539.527L278.409 545.339L284.231 550.068ZM261.812 577.664L266.535 571.838L260.714 567.119L255.99 572.935L261.812 577.664ZM244.999 598.363L239.177 593.635L234.447 599.459L240.273 604.187L244.999 598.363ZM235.645 590.771L230.919 596.595L236.736 601.315L241.463 595.504L235.645 590.771ZM252.468 570.091L258.286 574.824L263.027 568.996L257.191 564.265L252.468 570.091ZM224.433 547.363L229.156 541.537L223.348 536.829L218.622 542.621L224.433 547.363ZM207.59 568.003L201.779 563.261L197.025 569.088L202.864 573.827L207.59 568.003ZM258.074 563.194L253.353 569.022L259.168 573.734L263.892 567.927L258.074 563.194ZM274.897 542.515L280.715 547.247L285.46 541.415L279.616 536.685L274.897 542.515ZM246.891 519.845L251.609 514.016L245.803 509.316L241.08 515.104L246.891 519.845ZM230.048 540.486L224.237 535.744L219.479 541.575L225.327 546.313L230.048 540.486ZM220.705 532.913L215.983 538.74L221.786 543.442L226.512 537.659L220.705 532.913ZM237.557 512.292L243.364 517.038L248.133 511.203L242.276 506.463L237.557 512.292ZM209.551 489.623L214.27 483.793L208.476 479.104L203.751 484.868L209.551 489.623ZM192.679 510.204L186.879 505.449L182.097 511.283L187.957 516.031L192.679 510.204ZM215.176 482.766L209.376 478.011L204.591 483.849L210.459 488.597L215.176 482.766ZM232.048 462.184L236.762 456.351L230.97 451.67L226.248 457.43L232.048 462.184ZM260.025 484.795L265.832 489.541L270.604 483.701L264.739 478.961L260.025 484.795ZM243.173 505.415L238.456 511.246L244.258 515.94L248.98 510.161L243.173 505.415ZM252.507 512.968L246.696 508.227L241.934 514.062L247.789 518.799L252.507 512.968ZM280.503 535.618L275.786 541.449L281.601 546.153L286.321 540.351L280.503 535.618ZM289.837 543.171L284.015 538.443L279.277 544.275L285.12 549.002L289.837 543.171ZM317.833 565.821L313.116 571.651L318.944 576.366L323.662 570.54L317.833 565.821ZM327.167 573.374L321.335 568.658L316.621 574.489L322.45 579.205L327.167 573.374ZM343.951 552.615L348.665 546.782L342.833 542.069L338.119 547.9L343.951 552.615ZM371.928 575.225L377.767 579.932L382.468 574.1L376.642 569.392L371.928 575.225ZM355.163 596.023L350.446 601.854L356.288 606.58L361.003 600.73L355.163 596.023ZM198.237 560.411L193.511 566.234L199.314 570.944L204.044 565.157L198.237 560.411ZM215.089 539.79L220.896 544.536L225.661 538.706L219.812 533.964L215.089 539.79ZM201.974 574.88L206.702 569.058L200.894 564.341L196.163 570.138L201.974 574.88ZM230.039 597.668L235.857 602.4L240.595 596.577L234.767 591.845L230.039 597.668ZM213.216 618.347L208.486 624.167L214.304 628.896L219.034 623.08L213.216 618.347ZM185.132 595.52L179.321 590.779L174.57 596.601L180.401 601.34L185.132 595.52ZM192.621 567.287L198.428 572.033L203.19 566.208L197.349 561.465L192.621 567.287ZM175.769 587.908L171.038 593.728L176.843 598.446L181.576 592.654L175.769 587.908ZM147.684 565.081L141.884 560.326L137.109 566.151L142.954 570.901L147.684 565.081ZM164.556 544.5L169.284 538.677L163.489 533.972L158.756 539.745L164.556 544.5ZM170.182 537.643L164.382 532.888L159.603 538.717L165.456 543.466L170.182 537.643ZM187.053 517.061L191.777 511.235L185.982 506.538L181.253 512.307L187.053 517.061ZM222.58 625.96L216.758 621.231L212.031 627.051L217.849 631.78L222.58 625.96ZM239.393 605.26L244.12 599.438L238.299 594.711L233.571 600.532L239.393 605.26ZM267.458 628.048L273.286 632.767L278 626.946L272.185 622.225L267.458 628.048ZM250.664 648.787L245.934 654.607L251.764 659.346L256.493 653.506L250.664 648.787ZM260.027 656.399L254.195 651.684L249.492 657.501L255.297 662.219L260.027 656.399ZM276.811 635.64L281.538 629.818L275.704 625.08L270.979 630.925L276.811 635.64ZM304.876 658.428L310.715 663.134L315.405 657.316L309.603 652.605L304.876 658.428ZM288.112 679.226L283.381 685.046L289.225 689.796L293.951 683.933L288.112 679.226ZM433.275 479.497L428.57 485.337L430.964 487.265L434.022 486.959L433.275 479.497ZM495.799 450.825L500.551 445.023L500.551 445.023L495.799 450.825ZM476.91 475.127L477.658 482.59L480.858 482.27L482.832 479.73L476.91 475.127ZM274.897 382.295L279.603 376.455L279.603 376.455L274.897 382.295ZM739.191 98.25L745.508 102.293L733.15 93.805L739.191 98.25ZM278.827 720.469L274.101 726.293L276.518 728.254L279.613 727.928L278.827 720.469ZM307.017 717.5L307.802 724.959L310.931 724.629L312.888 722.166L307.017 717.5ZM252.221 394.377L256.343 388.112L252.623 385.665L248.694 387.758L252.221 394.377ZM274.069 667.812L269.339 673.632L269.339 673.632L274.069 667.812ZM288.112 671L286.451 678.314L288.229 678.717L289.994 678.26L288.112 671ZM296.494 668.827L302.333 673.533L302.333 673.533L296.494 668.827ZM310.462 642L309.46 649.433L310.363 649.555L311.269 649.456L310.462 642ZM332.813 615.5L331.194 622.823L332.939 623.209L334.669 622.767L332.813 615.5ZM341.195 613.358L347.034 618.065L347.034 618.065L341.195 613.358ZM236.622 637.373L231.891 643.193L231.891 643.193L236.622 637.373ZM259.026 609.747L254.3 615.571L254.3 615.571L259.026 609.747ZM281.451 610.762L287.279 615.482L287.279 615.482L281.451 610.762ZM303.84 583.106L309.669 587.826L309.669 587.826L303.84 583.106ZM326.23 555.451L332.059 560.171L332.059 560.171L326.23 555.451ZM266.505 524.293L261.788 530.124L261.788 530.124L266.505 524.293ZM288.914 525.278L294.732 530.011L294.732 530.011L288.914 525.278ZM266.486 552.854L272.304 557.587L272.304 557.587L266.486 552.854ZM229.175 494.091L224.457 499.921L224.457 499.921L229.175 494.091ZM235.645 583.106L233.723 590.356L235.836 590.916L237.919 590.254L235.645 583.106ZM257 556.5L254.459 563.556L257.085 564.502L259.691 563.501L257 556.5ZM280.503 529.5L277.888 536.529L280.949 537.668L283.868 536.203L280.503 529.5ZM317.833 560.411L314.914 567.319L318.394 568.79L321.647 566.868L317.833 560.411ZM354 590L351.137 596.932L354.156 598.179L357.125 596.818L354 590ZM248.5 641.093L246.259 648.25L248.284 648.884L250.342 648.363L248.5 641.093ZM211.5 610.762L209.276 617.924L211.361 618.572L213.468 617.999L211.5 610.762ZM174.5 582.122L171.476 588.985L174.589 590.356L177.671 588.918L174.5 582.122ZM196.5 552.854L194.27 560.015L196.354 560.664L198.462 560.093L196.5 552.854ZM220.705 527L217.99 533.991L221.16 535.222L224.175 533.649L220.705 527ZM243.173 498.5L240.919 505.653L243.483 506.461L245.976 505.457L243.173 498.5ZM339 311.638L333.18 306.908L344.005 317.224L339 311.638ZM402.51 233.5L407.144 227.603L401.343 223.044L396.69 228.77L402.51 233.5ZM444.5 266.5L441.96 273.557L449.134 260.603L444.5 266.5ZM406.99 253L409.53 245.943L405.5 244.493L402.203 247.226L406.99 253ZM610.375 269.312L614.828 263.277L596.953 250.09L592.5 256.125L588.047 262.16L605.922 275.348L610.375 269.312ZM614.5 233.75L610.075 239.805L626.325 251.68L630.75 245.625L635.175 239.57L618.925 227.695L614.5 233.75ZM576.066 360L570.276 355.232L493.276 448.732L499.066 453.5L504.855 458.268L581.855 364.768L576.066 360ZM325.066 311L330.888 315.727L406.388 222.727L400.566 218L394.743 213.273L319.243 306.273L325.066 311ZM334.627 545.082L339.341 539.248L311.364 516.638L306.65 522.471L301.936 528.305L329.913 550.915L334.627 545.082ZM297.326 514.938L302.04 509.105L274.063 486.495L269.349 492.328L264.635 498.161L292.612 520.771L297.326 514.938ZM353.181 314.104L359.007 318.827L362.351 314.703L356.526 309.979L350.701 305.255L347.356 309.38L353.181 314.104ZM356.526 309.979L361.25 304.154L357.08 300.772L352.356 306.597L347.632 312.423L351.802 315.804L356.526 309.979ZM352.356 306.597L358.181 311.321L378.732 285.98L372.906 281.256L367.081 276.532L346.531 301.873L352.356 306.597ZM372.906 281.256L368.182 287.081L372.811 290.835L377.535 285.009L382.259 279.184L377.63 275.431L372.906 281.256ZM377.535 285.009L371.709 280.285L351.531 305.169L357.356 309.893L363.181 314.617L383.36 289.733L377.535 285.009ZM357.356 309.893L352.632 315.718L356.298 318.691L361.022 312.866L365.746 307.04L362.08 304.067L357.356 309.893ZM361.022 312.866L366.847 317.589L373.611 309.249L367.785 304.525L361.96 299.801L355.197 308.142L361.022 312.866ZM367.785 304.525L363.061 310.351L367.277 313.769L372.001 307.944L376.725 302.119L372.509 298.7L367.785 304.525ZM372.001 307.944L377.827 312.668L387.86 300.295L382.035 295.571L376.21 290.847L366.176 303.22L372.001 307.944ZM382.035 295.571L377.311 301.397L381.894 305.113L386.618 299.287L391.342 293.462L386.759 289.746L382.035 295.571ZM386.618 299.287L380.792 294.563L370.759 306.936L376.584 311.66L382.409 316.384L392.443 304.011L386.618 299.287ZM376.584 311.66L371.86 317.486L376.076 320.905L380.8 315.079L385.524 309.254L381.308 305.835L376.584 311.66ZM380.8 315.079L374.975 310.355L368.211 318.696L374.036 323.419L379.862 328.143L386.625 319.803L380.8 315.079ZM374.036 323.419L369.312 329.245L373.024 332.255L377.748 326.43L382.472 320.604L378.76 317.594L374.036 323.419ZM377.748 326.43L383.574 331.154L403.752 306.27L397.927 301.546L392.102 296.822L371.923 321.706L377.748 326.43ZM397.927 301.546L393.203 307.372L397.786 311.088L402.51 305.262L407.234 299.437L402.651 295.721L397.927 301.546ZM402.51 305.262L396.684 300.538L376.134 325.88L381.959 330.604L387.784 335.328L408.335 309.986L402.51 305.262ZM381.959 330.604L386.683 324.779L382.559 321.434L377.835 327.259L373.111 333.085L377.235 336.429L381.959 330.604ZM377.835 327.259L372.01 322.536L368.665 326.66L374.49 331.384L380.316 336.108L383.66 331.983L377.835 327.259ZM374.49 331.384L379.214 325.558L374.586 321.805L369.862 327.63L365.138 333.456L369.766 337.209L374.49 331.384ZM369.862 327.63L375.687 332.354L379.032 328.23L373.207 323.506L367.381 318.782L364.037 322.906L369.862 327.63ZM373.207 323.506L377.93 317.681L373.715 314.262L368.991 320.087L364.267 325.913L368.483 329.331L373.207 323.506ZM368.991 320.087L374.816 324.811L381.579 316.471L375.754 311.747L369.929 307.023L363.165 315.363L368.991 320.087ZM375.754 311.747L380.478 305.922L376.812 302.949L372.088 308.774L367.364 314.599L371.03 317.572L375.754 311.747ZM372.088 308.774L366.263 304.05L359.499 312.39L365.324 317.114L371.15 321.838L377.913 313.498L372.088 308.774ZM365.324 317.114L370.048 311.289L365.832 307.87L361.109 313.695L356.385 319.521L360.601 322.94L365.324 317.114ZM361.109 313.695L355.283 308.971L351.939 313.096L357.764 317.82L363.589 322.544L366.934 318.419L361.109 313.695ZM357.764 317.82L362.488 311.994L357.905 308.278L353.181 314.104L348.457 319.929L353.04 323.645L357.764 317.82ZM390.601 344.449L396.426 349.172L416.568 324.335L410.743 319.611L404.917 314.887L384.776 339.725L390.601 344.449ZM410.743 319.611L415.467 313.786L411.801 310.813L407.077 316.638L402.353 322.463L406.019 325.436L410.743 319.611ZM407.077 316.638L401.251 311.914L397.907 316.038L403.732 320.762L409.557 325.486L412.902 321.362L407.077 316.638ZM403.732 320.762L408.456 314.937L403.828 311.184L399.104 317.009L394.38 322.834L399.008 326.588L403.732 320.762ZM399.104 317.009L404.929 321.733L408.645 317.15L402.82 312.426L396.995 307.702L393.278 312.285L399.104 317.009ZM402.82 312.426L398.096 318.252L402.266 321.633L406.99 315.808L411.714 309.983L407.544 306.601L402.82 312.426ZM406.99 315.808L412.815 320.532L416.197 316.362L410.372 311.638L404.546 306.914L401.165 311.084L406.99 315.808ZM410.372 311.638L405.648 317.463L418.571 327.943L423.295 322.118L428.019 316.292L415.096 305.813L410.372 311.638ZM423.295 322.118L417.469 317.394L414.088 321.564L419.913 326.288L425.738 331.012L429.12 326.842L423.295 322.118ZM419.913 326.288L415.189 332.113L419.405 335.532L424.129 329.707L428.853 323.881L424.637 320.463L419.913 326.288ZM424.129 329.707L418.303 324.983L414.587 329.565L420.413 334.289L426.238 339.013L429.954 334.431L424.129 329.707ZM420.413 334.289L425.137 328.464L420.462 324.673L415.738 330.499L411.014 336.324L415.689 340.115L420.413 334.289ZM415.738 330.499L421.564 335.223L424.908 331.098L419.083 326.374L413.258 321.65L409.913 325.775L415.738 330.499ZM419.083 326.374L423.807 320.549L420.141 317.576L415.417 323.402L410.693 329.227L414.359 332.2L419.083 326.374ZM415.417 323.402L409.592 318.678L389.45 343.515L395.275 348.239L401.1 352.963L421.242 328.125L415.417 323.402ZM395.275 348.239L399.999 342.414L395.325 338.623L390.601 344.449L385.877 350.274L390.551 354.064L395.275 348.239ZM282.407 628.724L288.239 633.439L305.023 612.681L299.191 607.965L293.359 603.25L276.575 624.008L282.407 628.724ZM299.191 607.965L294.468 613.791L322.503 636.519L327.226 630.693L331.95 624.867L303.914 602.139L299.191 607.965ZM349.577 602.959L354.296 597.13L326.289 574.46L321.571 580.29L316.852 586.12L344.858 608.789L349.577 602.959ZM321.571 580.29L315.739 575.575L298.955 596.333L304.787 601.049L310.619 605.764L327.403 585.005L321.571 580.29ZM312.237 572.737L316.956 566.907L288.949 544.238L284.231 550.068L279.512 555.897L307.518 578.566L312.237 572.737ZM284.231 550.068L278.409 545.339L261.596 566.039L267.418 570.767L273.239 575.496L290.052 554.796L284.231 550.068ZM289.847 600.392L294.57 594.566L266.535 571.838L261.812 577.664L257.089 583.49L285.124 606.218L289.847 600.392ZM261.812 577.664L255.99 572.935L239.177 593.635L244.999 598.363L250.82 603.092L267.633 582.392L261.812 577.664ZM252.468 570.091L257.191 564.265L229.156 541.537L224.433 547.363L219.709 553.189L247.745 575.917L252.468 570.091ZM224.433 547.363L218.622 542.621L201.779 563.261L207.59 568.003L213.401 572.745L230.244 552.104L224.433 547.363ZM274.897 542.515L279.616 536.685L251.609 514.016L246.891 519.845L242.172 525.675L270.178 548.344L274.897 542.515ZM230.048 540.486L235.859 545.227L252.702 524.587L246.891 519.845L241.08 515.104L224.237 535.744L230.048 540.486ZM237.557 512.292L242.276 506.463L214.27 483.793L209.551 489.623L204.832 495.453L232.838 518.122L237.557 512.292ZM209.551 489.623L203.751 484.868L186.879 505.449L192.679 510.204L198.479 514.959L215.351 494.378L209.551 489.623ZM215.176 482.766L220.977 487.521L237.848 466.939L232.048 462.184L226.248 457.43L209.376 478.011L215.176 482.766ZM232.048 462.184L227.334 468.018L255.311 490.628L260.025 484.795L264.739 478.961L236.762 456.351L232.048 462.184ZM269.349 492.328L263.538 487.586L246.696 508.227L252.507 512.968L258.318 517.71L275.16 497.07L269.349 492.328ZM289.837 543.171L295.658 547.9L312.471 527.2L306.65 522.471L300.828 517.743L284.015 538.443L289.837 543.171ZM327.167 573.374L332.999 578.089L349.783 557.33L343.951 552.615L338.119 547.9L321.335 568.658L327.167 573.374ZM343.951 552.615L339.237 558.448L367.213 581.058L371.928 575.225L376.642 569.392L348.665 546.782L343.951 552.615ZM201.974 574.88L197.247 580.702L225.312 603.49L230.039 597.668L234.767 591.845L206.702 569.058L201.974 574.88ZM185.132 595.52L190.943 600.262L207.785 579.622L201.974 574.88L196.163 570.138L179.321 590.779L185.132 595.52ZM147.684 565.081L153.485 569.836L170.356 549.255L164.556 544.5L158.756 539.745L141.884 560.326L147.684 565.081ZM164.556 544.5L159.829 550.322L187.894 573.11L192.621 567.287L197.349 561.465L169.284 538.677L164.556 544.5ZM170.182 537.643L175.982 542.398L192.854 521.816L187.053 517.061L181.253 512.307L164.382 532.888L170.182 537.643ZM187.053 517.061L182.33 522.887L210.366 545.616L215.089 539.79L219.812 533.964L191.777 511.235L187.053 517.061ZM222.58 625.96L228.401 630.688L245.214 609.989L239.393 605.26L233.571 600.532L216.758 621.231L222.58 625.96ZM239.393 605.26L234.665 611.082L262.73 633.87L267.458 628.048L272.185 622.225L244.12 599.438L239.393 605.26ZM260.027 656.399L265.859 661.114L282.643 640.356L276.811 635.64L270.979 630.925L254.195 651.684L260.027 656.399ZM276.811 635.64L272.083 641.463L300.148 664.25L304.876 658.428L309.603 652.605L281.538 629.818L276.811 635.64ZM495.799 450.825L500.551 445.023L329.818 305.198L325.066 311L320.314 316.802L491.047 456.627L495.799 450.825ZM499.066 453.5L503.818 447.698L500.551 445.023L495.799 450.825L491.047 456.627L494.313 459.302L499.066 453.5ZM260.049 339.964L255.344 345.804L428.57 485.337L433.275 479.497L437.98 473.656L264.754 334.123L260.049 339.964ZM433.275 479.497L434.022 486.959L477.658 482.59L476.91 475.127L476.163 467.665L432.528 472.034L433.275 479.497ZM476.91 475.127L482.832 479.73L501.721 455.428L495.799 450.825L489.877 446.222L470.989 470.525L476.91 475.127ZM289.807 303.232L294.79 308.837L430.048 188.606L425.065 183L420.083 177.394L284.825 297.626L289.807 303.232ZM81.5 560.355L86.905 565.554L234.95 411.659L229.545 406.46L224.14 401.26L76.095 555.155L81.5 560.355ZM259.303 369.728L254.597 375.567L270.191 388.135L274.897 382.295L279.603 376.455L264.01 363.888L259.303 369.728ZM274.897 382.295L270.191 388.135L452.523 535.08L457.23 529.24L461.936 523.401L279.603 376.455L274.897 382.295ZM569.886 355L575.774 359.645L602.204 326.145L596.316 321.5L590.427 316.855L563.998 350.355L569.886 355ZM596.316 321.5L602.39 325.899L757.39 111.899L751.316 107.5L745.241 103.101L590.241 317.101L596.316 321.5ZM630.75 245.625L623.386 247.045L626.657 264.004L634.021 262.583L641.385 261.163L638.114 244.205L630.75 245.625ZM634.021 262.583L640.338 266.626L745.508 102.293L739.191 98.25L732.873 94.2072L627.704 258.541L634.021 262.583ZM634.021 262.583L626.657 264.004L627.701 269.42L635.066 268L642.43 266.58L641.385 261.163L634.021 262.583ZM635.066 268L628.991 263.601L590.241 317.101L596.316 321.5L602.39 325.899L641.14 272.399L635.066 268ZM81.5 560.355L76.7743 566.179L274.101 726.293L278.827 720.469L283.553 714.646L86.2257 554.531L81.5 560.355ZM307.017 717.5L312.888 722.166L433.22 570.762L427.348 566.096L421.477 561.429L301.145 712.834L307.017 717.5ZM278.827 720.469L279.613 727.928L307.802 724.959L307.017 717.5L306.231 710.041L278.041 713.011L278.827 720.469ZM229.545 406.46L233.072 413.079L255.748 400.996L252.221 394.377L248.694 387.758L226.018 399.841L229.545 406.46ZM252.221 394.377L248.099 400.643L453.108 535.506L457.23 529.24L461.351 522.974L256.343 388.112L252.221 394.377ZM288.112 679.226L292.842 673.406L278.8 661.992L274.069 667.812L269.339 673.632L283.381 685.046L288.112 679.226ZM274.069 667.812L278.8 661.992L264.758 650.579L260.027 656.399L255.297 662.219L269.339 673.632L274.069 667.812ZM274.069 667.812L272.409 675.126L286.451 678.314L288.112 671L289.772 663.686L275.73 660.498L274.069 667.812ZM288.112 679.226L293.951 683.933L302.333 673.533L296.494 668.827L290.654 664.12L282.272 674.519L288.112 679.226ZM296.494 668.827L302.333 673.533L310.715 663.134L304.876 658.428L299.037 653.721L290.654 664.12L296.494 668.827ZM288.112 671L289.994 678.26L298.376 676.087L296.494 668.827L294.611 661.567L286.229 663.74L288.112 671ZM282.407 628.724L277.681 634.547L291.709 645.931L296.435 640.108L301.161 634.284L287.133 622.9L282.407 628.724ZM296.435 640.108L291.709 645.931L305.736 657.315L310.462 651.492L315.188 645.668L301.161 634.284L296.435 640.108ZM296.435 640.108L295.432 647.54L309.46 649.433L310.462 642L311.465 634.567L297.437 632.675L296.435 640.108ZM310.462 651.492L316.302 656.198L324.684 645.799L318.844 641.093L313.005 636.386L304.623 646.785L310.462 651.492ZM318.844 641.093L324.684 645.799L333.066 635.4L327.226 630.693L321.387 625.987L313.005 636.386L318.844 641.093ZM310.462 642L311.269 649.456L319.652 648.549L318.844 641.093L318.037 633.636L309.655 634.544L310.462 642ZM304.787 601.049L300.065 606.876L314.078 618.23L318.8 612.403L323.522 606.576L309.509 595.222L304.787 601.049ZM318.8 612.403L314.078 618.23L328.091 629.585L332.813 623.758L337.534 617.93L323.522 606.576L318.8 612.403ZM318.8 612.403L317.182 619.726L331.194 622.823L332.813 615.5L334.431 608.177L320.418 605.08L318.8 612.403ZM332.813 623.758L338.652 628.464L347.034 618.065L341.195 613.358L335.356 608.652L326.974 619.051L332.813 623.758ZM341.195 613.358L347.034 618.065L355.416 607.666L349.577 602.959L343.738 598.253L335.356 608.652L341.195 613.358ZM332.813 615.5L334.669 622.767L343.052 620.625L341.195 613.358L339.338 606.092L330.956 608.233L332.813 615.5ZM733.128 93.625L727.806 88.3403L588.658 228.465L593.979 233.75L599.301 239.035L738.45 98.9097L733.128 93.625ZM593.979 233.75V241.25H614.5V233.75V226.25H593.979V233.75ZM591.316 233.75V241.25H593.979V233.75V226.25H591.316V233.75ZM593.979 233.75L588.658 228.465L564.806 252.485L570.127 257.769L575.449 263.054L599.301 239.035L593.979 233.75ZM570.127 257.769L570.677 265.249L593.05 263.605L592.5 256.125L591.95 248.645L569.578 250.29L570.127 257.769ZM546.066 282L551.387 287.285L575.449 263.054L570.127 257.769L564.806 252.485L540.744 276.715L546.066 282ZM570.127 257.769L569.578 250.29L568.141 250.395L568.691 257.875L569.24 265.355L570.677 265.249L570.127 257.769ZM634.021 262.583L627.704 258.541L608.818 288.05L615.135 292.093L621.452 296.136L640.338 266.626L634.021 262.583ZM615.135 292.093L622.477 290.559L617.716 267.778L610.375 269.312L603.034 270.847L607.794 293.627L615.135 292.093ZM615.135 292.093L608.818 288.05L589.998 317.457L596.316 321.5L602.633 325.543L621.452 296.136L615.135 292.093ZM615.691 294.75L623.032 293.216L622.477 290.559L615.135 292.093L607.794 293.627L608.349 296.284L615.691 294.75ZM610.375 269.312L616.061 274.203L636.436 250.516L630.75 245.625L625.064 240.734L604.689 264.422L610.375 269.312ZM630.75 245.625L636.791 250.07L745.231 102.695L739.191 98.25L733.15 93.805L624.709 241.18L630.75 245.625ZM250.664 648.787L255.395 642.967L241.352 631.553L236.622 637.373L231.891 643.193L245.934 654.607L250.664 648.787ZM236.622 637.373L241.352 631.553L227.31 620.14L222.58 625.96L217.849 631.78L231.891 643.193L236.622 637.373ZM267.458 628.048L261.629 623.328L253.232 633.697L259.061 638.417L264.889 643.137L273.286 632.767L267.458 628.048ZM259.061 638.417L253.232 633.697L244.835 644.067L250.664 648.787L256.493 653.506L264.889 643.137L259.061 638.417ZM244.999 598.363L240.273 604.187L254.3 615.571L259.026 609.747L263.752 603.924L249.725 592.54L244.999 598.363ZM259.026 609.747L254.3 615.571L268.328 626.955L273.054 621.131L277.78 615.308L263.752 603.924L259.026 609.747ZM273.054 621.131L278.882 625.851L287.279 615.482L281.451 610.762L275.622 606.042L267.225 616.412L273.054 621.131ZM281.451 610.762L287.279 615.482L295.676 605.112L289.847 600.392L284.019 595.672L275.622 606.042L281.451 610.762ZM259.026 609.747L258.687 617.24L281.112 618.254L281.451 610.762L281.789 603.27L259.365 602.255L259.026 609.747ZM295.444 593.476L300.165 587.649L286.152 576.294L281.431 582.122L276.709 587.949L290.722 599.303L295.444 593.476ZM281.431 582.122L286.152 576.294L272.139 564.94L267.418 570.767L262.696 576.594L276.709 587.949L281.431 582.122ZM295.444 593.476L301.272 598.196L309.669 587.826L303.84 583.106L298.012 578.387L289.615 588.756L295.444 593.476ZM303.84 583.106L309.669 587.826L318.066 577.457L312.237 572.737L306.408 568.017L298.012 578.387L303.84 583.106ZM281.431 582.122L281.101 589.614L303.511 590.599L303.84 583.106L304.17 575.614L281.76 574.629L281.431 582.122ZM317.833 565.821L322.55 559.99L308.552 548.665L303.835 554.496L299.118 560.327L313.116 571.651L317.833 565.821ZM303.835 554.496L308.552 548.665L294.554 537.34L289.837 543.171L285.12 549.002L299.118 560.327L303.835 554.496ZM317.833 565.821L323.662 570.54L332.059 560.171L326.23 555.451L320.401 550.731L312.005 561.101L317.833 565.821ZM326.23 555.451L332.059 560.171L340.455 549.801L334.627 545.082L328.798 540.362L320.401 550.731L326.23 555.451ZM355.163 596.023L359.881 590.192L345.882 578.868L341.165 584.698L336.448 590.529L350.446 601.854L355.163 596.023ZM341.165 584.698L345.882 578.868L331.884 567.543L327.167 573.374L322.45 579.205L336.448 590.529L341.165 584.698ZM355.163 596.023L361.003 600.73L369.385 590.331L363.546 585.624L357.706 580.917L349.324 591.317L355.163 596.023ZM363.546 585.624L369.385 590.331L377.767 579.932L371.928 575.225L366.088 570.518L357.706 580.917L363.546 585.624ZM252.507 512.968L247.789 518.799L261.788 530.124L266.505 524.293L271.222 518.462L257.224 507.138L252.507 512.968ZM266.505 524.293L261.788 530.124L275.786 541.449L280.503 535.618L285.22 529.787L271.222 518.462L266.505 524.293ZM280.503 535.618L286.321 540.351L294.732 530.011L288.914 525.278L283.096 520.545L274.685 530.885L280.503 535.618ZM288.914 525.278L294.732 530.011L303.144 519.671L297.326 514.938L291.508 510.205L283.096 520.545L288.914 525.278ZM230.048 540.486L225.327 546.313L239.34 557.667L244.061 551.84L248.783 546.013L234.77 534.659L230.048 540.486ZM244.061 551.84L239.34 557.667L253.353 569.022L258.074 563.194L262.796 557.367L248.783 546.013L244.061 551.84ZM258.074 563.194L263.892 567.927L272.304 557.587L266.486 552.854L260.668 548.122L252.256 558.462L258.074 563.194ZM266.486 552.854L272.304 557.587L280.715 547.247L274.897 542.515L269.079 537.782L260.668 548.122L266.486 552.854ZM192.679 510.204L187.957 516.031L201.97 527.386L206.692 521.559L211.414 515.731L197.401 504.377L192.679 510.204ZM206.692 521.559L201.97 527.386L215.983 538.74L220.705 532.913L225.426 527.086L211.414 515.731L206.692 521.559ZM220.705 532.913L226.512 537.659L234.938 527.349L229.131 522.603L223.324 517.857L214.897 528.167L220.705 532.913ZM229.131 522.603L234.938 527.349L243.364 517.038L237.557 512.292L231.75 507.546L223.324 517.857L229.131 522.603ZM243.173 505.415L247.89 499.585L233.892 488.26L229.175 494.091L224.457 499.921L238.456 511.246L243.173 505.415ZM229.175 494.091L233.892 488.26L219.894 476.935L215.176 482.766L210.459 488.597L224.457 499.921L229.175 494.091ZM260.025 484.795L254.218 480.049L245.792 490.359L251.599 495.105L257.406 499.851L265.832 489.541L260.025 484.795ZM251.599 495.105L245.792 490.359L237.365 500.669L243.173 505.415L248.98 510.161L257.406 499.851L251.599 495.105ZM198.237 560.411L202.963 554.587L188.935 543.203L184.209 549.027L179.483 554.85L193.511 566.234L198.237 560.411ZM184.209 549.027L188.935 543.203L174.908 531.819L170.182 537.643L165.456 543.466L179.483 554.85L184.209 549.027ZM198.237 560.411L204.044 565.157L212.47 554.846L206.663 550.1L200.856 545.354L192.429 555.665L198.237 560.411ZM206.663 550.1L212.47 554.846L220.896 544.536L215.089 539.79L209.282 535.044L200.856 545.354L206.663 550.1ZM175.769 587.908L180.499 582.088L166.457 570.675L161.727 576.495L156.996 582.315L171.038 593.728L175.769 587.908ZM161.727 576.495L166.457 570.675L152.415 559.261L147.684 565.081L142.954 570.901L156.996 582.315L161.727 576.495ZM192.621 567.287L186.814 562.541L178.388 572.852L184.195 577.598L190.002 582.344L198.428 572.033L192.621 567.287ZM184.195 577.598L178.388 572.852L169.961 583.162L175.769 587.908L181.576 592.654L190.002 582.344L184.195 577.598ZM213.216 618.347L217.947 612.527L203.905 601.114L199.174 606.934L194.444 612.754L208.486 624.167L213.216 618.347ZM199.174 606.934L203.905 601.114L189.862 589.7L185.132 595.52L180.401 601.34L194.444 612.754L199.174 606.934ZM230.039 597.668L224.221 592.935L215.81 603.275L221.628 608.007L227.446 612.74L235.857 602.4L230.039 597.668ZM221.628 608.007L215.81 603.275L207.398 613.614L213.216 618.347L219.034 623.08L227.446 612.74L221.628 608.007ZM207.59 568.003L202.864 573.827L216.892 585.211L221.618 579.387L226.344 573.563L212.316 562.18L207.59 568.003ZM221.618 579.387L216.892 585.211L230.919 596.595L235.645 590.771L240.371 584.947L226.344 573.563L221.618 579.387ZM221.618 579.387L219.696 586.637L233.723 590.356L235.645 583.106L237.568 575.857L223.54 572.138L221.618 579.387ZM235.645 590.771L241.463 595.504L249.875 585.164L244.057 580.431L238.239 575.698L229.827 586.038L235.645 590.771ZM244.057 580.431L249.875 585.164L258.286 574.824L252.468 570.091L246.65 565.358L238.239 575.698L244.057 580.431ZM235.645 583.106L237.919 590.254L246.33 587.578L244.057 580.431L241.783 573.284L233.372 575.959L235.645 583.106ZM244.061 551.84L241.52 558.896L254.459 563.556L257 556.5L259.541 549.444L246.603 544.784L244.061 551.84ZM257 556.5L259.691 563.501L269.176 559.855L266.486 552.854L263.795 545.854L254.309 549.499L257 556.5ZM266.505 524.293L263.89 531.323L277.888 536.529L280.503 529.5L283.118 522.471L269.12 517.264L266.505 524.293ZM280.503 529.5L283.868 536.203L292.279 531.981L288.914 525.278L285.55 518.575L277.139 522.797L280.503 529.5ZM303.835 554.496L300.916 561.404L314.914 567.319L317.833 560.411L320.752 553.502L306.754 547.587L303.835 554.496ZM317.833 560.411L321.647 566.868L330.044 561.909L326.23 555.451L322.416 548.993L314.019 553.953L317.833 560.411ZM341.165 584.698L338.302 591.63L351.137 596.932L354 590L356.863 583.068L344.029 577.767L341.165 584.698ZM354 590L357.125 596.818L366.671 592.442L363.546 585.624L360.42 578.806L350.875 583.182L354 590ZM236.622 637.373L234.381 644.53L246.259 648.25L248.5 641.093L250.741 633.935L238.863 630.216L236.622 637.373ZM248.5 641.093L250.342 648.363L260.903 645.687L259.061 638.417L257.219 631.147L246.658 633.822L248.5 641.093ZM199.174 606.934L196.95 614.096L209.276 617.924L211.5 610.762L213.724 603.599L201.399 599.771L199.174 606.934ZM211.5 610.762L213.468 617.999L223.596 615.245L221.628 608.007L219.66 600.77L209.532 603.525L211.5 610.762ZM161.727 576.495L158.703 583.358L171.476 588.985L174.5 582.122L177.524 575.258L164.75 569.631L161.727 576.495ZM174.5 582.122L177.671 588.918L187.366 584.394L184.195 577.598L181.024 570.801L171.329 575.325L174.5 582.122ZM184.209 549.027L181.979 556.187L194.27 560.015L196.5 552.854L198.73 545.694L186.439 541.866L184.209 549.027ZM196.5 552.854L198.462 560.093L208.625 557.339L206.663 550.1L204.701 542.861L194.538 545.616L196.5 552.854ZM206.692 521.559L203.977 528.55L217.99 533.991L220.705 527L223.42 520.009L209.407 514.567L206.692 521.559ZM220.705 527L224.175 533.649L232.601 529.252L229.131 522.603L225.661 515.954L217.235 520.351L220.705 527ZM229.175 494.091L226.921 501.244L240.919 505.653L243.173 498.5L245.426 491.347L231.428 486.937L229.175 494.091ZM243.173 498.5L245.976 505.457L254.402 502.061L251.599 495.105L248.796 488.148L240.37 491.543L243.173 498.5ZM339 311.638L344.82 316.368L408.33 238.23L402.51 233.5L396.69 228.77L333.18 306.908L339 311.638ZM402.51 233.5L397.875 239.397L439.866 272.397L444.5 266.5L449.134 260.603L407.144 227.603L402.51 233.5ZM444.5 266.5L447.04 259.443L409.53 245.943L406.99 253L404.45 260.057L441.96 273.557L444.5 266.5ZM406.99 253L402.203 247.226L368.12 275.482L372.906 281.256L377.693 287.03L411.777 258.774L406.99 253ZM372.906 281.256L367.901 275.67L333.995 306.052L339 311.638L344.005 317.224L377.911 286.841L372.906 281.256ZM307.017 743.343L308.572 758.262L314.754 757.618L318.668 752.79L307.017 743.343ZM83.703 581.444L68.7842 583.003L69.4294 589.179L74.251 593.091L83.703 581.444ZM402.566 164.5L412.092 152.914L400.459 143.349L390.941 155.02L402.566 164.5ZM628.066 347.5L639.69 356.98L649.151 345.379L637.569 335.895L628.066 347.5ZM596.316 321.5L584.167 312.701L575.875 324.149L586.812 333.105L596.316 321.5ZM751.316 107.5L763.464 116.299L772.047 104.449L760.414 95.5742L751.316 107.5ZM727.066 89L736.164 77.0742L725.392 68.8567L716.124 78.739L727.066 89ZM546.066 282L536.557 293.602L547.409 302.495L557.007 292.261L546.066 282ZM479.566 227.5L466.542 220.058L460.252 231.065L470.057 239.102L479.566 227.5ZM501.565 189L514.589 196.442L520.909 185.382L511.019 177.354L501.565 189ZM459.065 154.5L468.519 142.854L458.912 135.056L449.43 143.004L459.065 154.5ZM425.065 183L415.539 194.586L425.158 202.495L434.701 194.496L425.065 183ZM319.566 266.5L331.221 275.942L340.211 264.845L329.567 255.321L319.566 266.5ZM360.566 216L351.195 227.713L362.799 236.996L372.19 225.48L360.566 216ZM546.066 448.5L556.672 437.893L544.899 426.121L534.414 439.053L546.066 448.5ZM586.066 399L574.441 389.52L565.006 401.089L576.53 410.579L586.066 399ZM553.066 455.5L542.459 466.107L554.039 477.687L564.56 465.137L553.066 455.5ZM594.566 406L606.06 415.637L615.782 404.041L604.101 394.421L594.566 406ZM310.066 258L298.41 248.559L289.421 259.656L300.064 269.179L310.066 258ZM350.566 208L359.936 196.287L348.294 186.973L338.91 198.559L350.566 208ZM591.316 233.75L580.374 223.489L580.374 223.489L591.316 233.75ZM285.913 745.544L276.461 757.191L281.287 761.107L287.469 760.463L285.913 745.544ZM81.5 560.355L69.8449 550.912L65.936 555.737L66.5812 561.913L81.5 560.355ZM200.533 413.427L197.03 398.842L192.081 400.031L188.878 403.985L200.533 413.427ZM426.541 595.922L438.193 605.368L441.398 601.415L441.536 596.327L426.541 595.922ZM486.303 522.211L489.828 536.791L494.76 535.598L497.955 531.657L486.303 522.211ZM260.049 339.964L248.394 330.521L245.182 334.486L245.054 339.588L260.049 339.964ZM229.545 406.46L233.048 421.045L237.997 419.856L241.2 415.902L229.545 406.46ZM427.348 566.096L415.697 556.649L412.492 560.602L412.354 565.69L427.348 566.096ZM457.23 529.24L453.704 514.66L448.773 515.853L445.578 519.794L457.23 529.24ZM259.303 369.728L270.958 379.17L274.171 375.205L274.299 370.104L259.303 369.728ZM569.886 355L579.321 343.339L579.321 343.339L569.886 355ZM596.316 321.5L586.812 333.105L618.562 359.105L628.066 347.5L637.569 335.895L605.819 309.895L596.316 321.5ZM479.566 227.5L470.057 239.102L536.557 293.602L546.066 282L555.574 270.398L489.074 215.898L479.566 227.5ZM479.566 227.5L492.589 234.942L514.589 196.442L501.565 189L488.542 181.558L466.542 220.058L479.566 227.5ZM501.565 189L511.019 177.354L468.519 142.854L459.065 154.5L449.612 166.146L492.112 200.646L501.565 189ZM402.566 164.5L393.039 176.086L415.539 194.586L425.065 183L434.592 171.414L412.092 152.914L402.566 164.5ZM459.065 154.5L449.43 143.004L415.43 171.504L425.065 183L434.701 194.496L468.701 165.996L459.065 154.5ZM360.566 216L372.19 225.48L414.19 173.98L402.566 164.5L390.941 155.02L348.941 206.52L360.566 216ZM628.066 347.5L616.441 338.02L574.441 389.52L586.066 399L597.69 408.48L639.69 356.98L628.066 347.5ZM553.066 455.5L563.672 444.893L556.672 437.893L546.066 448.5L535.459 459.107L542.459 466.107L553.066 455.5ZM586.066 399L576.53 410.579L585.03 417.579L594.566 406L604.101 394.421L595.601 387.421L586.066 399ZM594.566 406L583.071 396.363L541.571 445.863L553.066 455.5L564.56 465.137L606.06 415.637L594.566 406ZM319.566 266.5L329.567 255.321L320.067 246.821L310.066 258L300.064 269.179L309.564 277.679L319.566 266.5ZM310.066 258L321.721 267.441L362.221 217.441L350.566 208L338.91 198.559L298.41 248.559L310.066 258ZM350.566 208L341.195 219.713L351.195 227.713L360.566 216L369.936 204.287L359.936 196.287L350.566 208ZM591.316 233.75L580.374 223.489L557.749 247.614L568.691 257.875L579.632 268.136L602.257 244.011L591.316 233.75ZM568.691 257.875L557.749 247.614L535.124 271.739L546.066 282L557.007 292.261L579.632 268.136L568.691 257.875ZM596.316 321.5L608.464 330.299L627.839 303.549L615.691 294.75L603.542 285.951L584.167 312.701L596.316 321.5ZM615.691 294.75L627.839 303.549L647.214 276.799L635.066 268L622.917 259.201L603.542 285.951L615.691 294.75ZM83.703 581.444L98.6219 579.886L96.4188 558.796L81.5 560.355L66.5812 561.913L68.7842 583.003L83.703 581.444ZM307.017 743.343L305.461 728.424L284.357 730.624L285.913 745.544L287.469 760.463L308.572 758.262L307.017 743.343ZM546.066 448.5L534.414 439.053L474.652 512.764L486.303 522.211L497.955 531.657L557.717 457.947L546.066 448.5ZM427.348 566.096L412.354 565.69L411.547 595.516L426.541 595.922L441.536 596.327L442.343 566.502L427.348 566.096ZM486.303 522.211L482.778 507.631L453.704 514.66L457.23 529.24L460.755 543.82L489.828 536.791L486.303 522.211ZM457.23 529.24L445.578 519.794L415.697 556.649L427.348 566.096L439 575.542L468.881 538.687L457.23 529.24ZM229.545 406.46L241.2 415.902L270.958 379.17L259.303 369.728L247.648 360.285L217.89 397.017L229.545 406.46ZM259.303 369.728L274.299 370.104L275.044 340.339L260.049 339.964L245.054 339.588L244.308 369.352L259.303 369.728ZM200.533 413.427L204.036 428.013L233.048 421.045L229.545 406.46L226.042 391.874L197.03 398.842L200.533 413.427ZM285.913 745.544L295.365 733.896L93.1551 569.797L83.703 581.444L74.251 593.091L276.461 757.191L285.913 745.544ZM81.5 560.355L93.1551 569.797L212.188 422.87L200.533 413.427L188.878 403.985L69.8449 550.912L81.5 560.355ZM426.541 595.922L414.889 586.475L295.365 733.896L307.017 743.343L318.668 752.79L438.193 605.368L426.541 595.922ZM727.066 89L716.124 78.739L580.374 223.489L591.316 233.75L602.257 244.011L738.007 99.261L727.066 89ZM635.066 268L647.214 276.799L763.464 116.299L751.316 107.5L739.167 98.7011L622.917 259.201L635.066 268ZM400.566 218L391.13 229.661L566.63 371.661L576.066 360L585.501 348.339L410.001 206.339L400.566 218ZM260.049 339.964L271.704 349.406L301.462 312.674L289.807 303.232L278.152 293.789L248.394 330.521L260.049 339.964ZM289.807 303.232L301.462 312.674L331.221 275.942L319.566 266.5L307.91 257.058L278.152 293.789L289.807 303.232ZM576.066 360L585.501 348.339L579.321 343.339L569.886 355L560.451 366.661L566.63 371.661L576.066 360ZM751.316 107.5L760.414 95.5742L748.289 86.3242L739.191 98.25L730.092 110.176L742.217 119.426L751.316 107.5ZM400.566 218L391.13 229.661L560.451 366.661L569.886 355L579.321 343.339L410.001 206.339L400.566 218ZM739.191 98.25L748.289 86.3242L742.226 81.6992L733.128 93.625L724.03 105.551L730.092 110.176L739.191 98.25ZM733.128 93.625L742.226 81.6992L736.164 77.0742L727.066 89L717.967 100.926L724.03 105.551L733.128 93.625Z" fill="#65F0BD" mask="url(#path-2-outside-1_2_15)"/>
<defs>
<radialGradient id="paint0_radial_2_15" cx="0" cy="0" r="1" gradientUnits="userSpaceOnUse" gradientTransform="translate(233.5 637) rotate(-34.5709) scale(685.552)">
<stop offset="0.254808" stop-color="#65F0BD"/>
<stop offset="1" stop-color="#1148A7"/>
</radialGradient>
</defs>
</svg>
